<svg width="17" height="17" viewBox="0 0 17 17" fill="none" xmlns="http://www.w3.org/2000/svg">
<path d="M9.47041 5.82388H7.87041V4.22388H9.47041M9.47041 12.2239H7.87041V7.42388H9.47041M8.67041 0.223877C7.61984 0.223877 6.57955 0.430803 5.60894 0.832841C4.63834 1.23488 3.75642 1.82415 3.01356 2.56702C1.51326 4.06731 0.67041 6.10215 0.67041 8.22388C0.67041 10.3456 1.51326 12.3804 3.01356 13.8807C3.75642 14.6236 4.63834 15.2129 5.60894 15.6149C6.57955 16.017 7.61984 16.2239 8.67041 16.2239C10.7921 16.2239 12.827 15.381 14.3273 13.8807C15.8276 12.3804 16.6704 10.3456 16.6704 8.22388C16.6704 7.1733 16.4635 6.13301 16.0614 5.16241C15.6594 4.1918 15.0701 3.30989 14.3273 2.56702C13.5844 1.82415 12.7025 1.23488 11.7319 0.832841C10.7613 0.430803 9.72099 0.223877 8.67041 0.223877Z" fill="white"/>
</svg>
