<svg width="25" height="24" viewBox="0 0 25 24" fill="none" xmlns="http://www.w3.org/2000/svg">
<path fill-rule="evenodd" clip-rule="evenodd" d="M16.1851 3.83144C17.06 2.81746 17.6497 1.40518 17.4883 0C16.2275 0.048 14.7022 0.805376 13.7982 1.81816C12.9864 2.71695 12.2778 4.15308 12.4683 5.53066C13.8747 5.63505 15.3102 4.84662 16.1851 3.83144ZM19.3388 12.75C19.374 16.3824 22.6636 17.5906 22.7 17.6062C22.6733 17.6914 22.1746 19.3279 20.9672 21.0199C19.9224 22.4815 18.8388 23.9372 17.1315 23.9684C15.4546 23.9984 14.9146 23.0156 12.9962 23.0156C11.0789 23.0156 10.4795 23.937 8.89232 23.9982C7.24447 24.057 5.98857 22.4169 4.93652 20.9602C2.78388 17.9806 1.13968 12.5401 3.34813 8.86816C4.44508 7.04539 6.40477 5.88935 8.53314 5.86055C10.1507 5.83055 11.6784 6.90352 12.6673 6.90352C13.6563 6.90352 15.5128 5.61352 17.464 5.80312C18.2807 5.83552 20.5741 6.11862 22.046 8.18379C21.927 8.25459 19.3097 9.71405 19.3388 12.75Z" fill="black"/>
</svg>
