<svg width="84" height="84" viewBox="0 0 84 84" fill="none" xmlns="http://www.w3.org/2000/svg">
<g id="CallBell" clip-path="url(#clip0_623_4650)">
<path id="Vector" d="M5.25 57.75C5.25 57.0538 5.52656 56.3861 6.01884 55.8938C6.51113 55.4016 7.17881 55.125 7.875 55.125H10.5V49.875C10.5096 41.9781 13.4812 34.372 18.8277 28.5602C24.1741 22.7484 31.5063 19.1537 39.375 18.4866V13.125H34.125C33.4288 13.125 32.7611 12.8484 32.2688 12.3562C31.7766 11.8639 31.5 11.1962 31.5 10.5C31.5 9.80381 31.7766 9.13613 32.2688 8.64384C32.7611 8.15156 33.4288 7.875 34.125 7.875H49.875C50.5712 7.875 51.2389 8.15156 51.7312 8.64384C52.2234 9.13613 52.5 9.80381 52.5 10.5C52.5 11.1962 52.2234 11.8639 51.7312 12.3562C51.2389 12.8484 50.5712 13.125 49.875 13.125H44.625V18.4866C52.4937 19.1537 59.8259 22.7484 65.1723 28.5602C70.5188 34.372 73.4904 41.9781 73.5 49.875V55.125H76.125C76.8212 55.125 77.4889 55.4016 77.9812 55.8938C78.4734 56.3861 78.75 57.0538 78.75 57.75C78.75 58.4462 78.4734 59.1139 77.9812 59.6062C77.4889 60.0984 76.8212 60.375 76.125 60.375H7.875C7.17881 60.375 6.51113 60.0984 6.01884 59.6062C5.52656 59.1139 5.25 58.4462 5.25 57.75ZM76.125 65.625H7.875C7.17881 65.625 6.51113 65.9016 6.01884 66.3938C5.52656 66.8861 5.25 67.5538 5.25 68.25C5.25 68.9462 5.52656 69.6139 6.01884 70.1062C6.51113 70.5984 7.17881 70.875 7.875 70.875H76.125C76.8212 70.875 77.4889 70.5984 77.9812 70.1062C78.4734 69.6139 78.75 68.9462 78.75 68.25C78.75 67.5538 78.4734 66.8861 77.9812 66.3938C77.4889 65.9016 76.8212 65.625 76.125 65.625Z" fill="white"/>
</g>
<defs>
<clipPath id="clip0_623_4650">
<rect width="84" height="84" fill="white"/>
</clipPath>
</defs>
</svg>
