<svg width="16" height="143" viewBox="0 0 16 143" fill="none" xmlns="http://www.w3.org/2000/svg">
<path d="M8.11548 13V142.001" stroke="#8B0000" stroke-linecap="round" stroke-dasharray="3 5"/>
<circle cx="8.39344" cy="49.3934" r="2.39344" fill="#8B0000"/>
<circle cx="8.39344" cy="95.3934" r="2.39344" fill="#8B0000"/>
<circle cx="8.39344" cy="140.393" r="2.39344" fill="#8B0000"/>
<path d="M10.5449 5.51639C10.5866 5.55807 10.6197 5.60756 10.6423 5.66204C10.6649 5.71652 10.6765 5.77492 10.6765 5.8339C10.6765 5.89287 10.6649 5.95127 10.6423 6.00575C10.6197 6.06023 10.5866 6.10972 10.5449 6.1514L7.40352 9.2928C7.36184 9.33452 7.31235 9.36762 7.25787 9.39021C7.20339 9.41279 7.14499 9.42441 7.08601 9.42441C7.02704 9.42441 6.96864 9.41279 6.91416 9.39021C6.85968 9.36762 6.81019 9.33452 6.76851 9.2928L5.4222 7.94648C5.33799 7.86228 5.29068 7.74807 5.29068 7.62898C5.29068 7.50989 5.33799 7.39568 5.4222 7.31147C5.5064 7.22727 5.62062 7.17996 5.7397 7.17996C5.85879 7.17996 5.973 7.22727 6.05721 7.31147L7.08601 8.34084L9.9099 5.51639C9.95158 5.47467 10.0011 5.44157 10.0556 5.41898C10.11 5.3964 10.1684 5.38477 10.2274 5.38477C10.2864 5.38477 10.3448 5.3964 10.3993 5.41898C10.4537 5.44157 10.5032 5.47467 10.5449 5.51639ZM13.8176 7.18021C13.8176 8.33407 13.4754 9.46201 12.8344 10.4214C12.1933 11.3808 11.2822 12.1286 10.2161 12.5701C9.15011 13.0117 7.97708 13.1272 6.8454 12.9021C5.71371 12.677 4.67418 12.1214 3.85828 11.3055C3.04238 10.4896 2.48674 9.45006 2.26164 8.31837C2.03653 7.18668 2.15206 6.01365 2.59363 4.94763C3.03519 3.8816 3.78295 2.97045 4.74235 2.3294C5.70175 1.68835 6.8297 1.34619 7.98356 1.34619C9.53033 1.34782 11.0133 1.963 12.107 3.05674C13.2008 4.15048 13.8159 5.63343 13.8176 7.18021ZM12.92 7.18021C12.92 6.20387 12.6305 5.24945 12.0881 4.43765C11.5457 3.62585 10.7747 2.99313 9.87266 2.6195C8.97064 2.24587 7.97808 2.14811 7.0205 2.33859C6.06291 2.52906 5.18332 2.99921 4.49294 3.68959C3.80256 4.37997 3.33241 5.25957 3.14193 6.21715C2.95146 7.17473 3.04922 8.16729 3.42285 9.06932C3.79648 9.97134 4.4292 10.7423 5.241 11.2847C6.0528 11.8272 7.00721 12.1167 7.98356 12.1167C9.29233 12.1152 10.5471 11.5946 11.4725 10.6692C12.398 9.74374 12.9185 8.48899 12.92 7.18021Z" fill="#8B0000"/>
</svg>
