<svg width="30" height="29" viewBox="0 0 30 29" fill="none" xmlns="http://www.w3.org/2000/svg">
<path d="M23.8923 7.26071L23.8922 7.26074L23.8966 7.26458C24.3026 7.62426 24.6328 8.06131 24.8679 8.55013C25.0936 9.06349 25.2078 9.61899 25.2027 10.1798H25.2027V10.1844V20.3689C25.1826 21.0886 25.0199 21.7972 24.7241 22.4537C24.4273 23.1121 24.0025 23.705 23.4744 24.1976C22.9463 24.6902 22.3254 25.0729 21.6479 25.3232C20.9705 25.5735 20.25 25.6865 19.5284 25.6556L19.5177 25.6552H19.507H10.5167H10.5039L10.491 25.6558C9.78243 25.6924 9.07399 25.5817 8.41036 25.3307L8.41039 25.3307L8.40219 25.3277C7.37671 24.9602 6.48501 24.2936 5.84233 23.414C5.20134 22.5368 4.83744 21.4879 4.79729 20.4023V8.16965C4.81767 7.45002 4.98054 6.74155 5.27649 6.08523C5.57335 5.4269 5.99819 4.83418 6.52627 4.34157C7.05435 3.84897 7.67514 3.46631 8.35249 3.21587C9.02985 2.96544 9.75026 2.85222 10.4718 2.88282L10.4824 2.88327H10.493H17.7927C18.7362 2.98313 19.623 3.38294 20.3227 4.02429L20.3247 4.02612L23.8923 7.26071ZM20.2086 21.1016H20.7086V20.9522C20.9405 20.8524 21.1489 20.7011 21.3168 20.5076C21.5833 20.2003 21.7301 19.8073 21.7301 19.4006C21.7301 18.9938 21.5833 18.6008 21.3168 18.2936C21.0503 17.9864 20.6818 17.7856 20.2792 17.7283L20.2441 17.7233H20.2086H9.86269C9.41469 17.7233 8.98504 17.9012 8.66826 18.218C8.35147 18.5348 8.1735 18.9645 8.1735 19.4125C8.1735 19.8605 8.35147 20.2901 8.66825 20.6069C8.98504 20.9237 9.41469 21.1016 9.86269 21.1016H20.2086ZM18.6497 3.88329L18.0319 3.73352V4.36921V7.52054C18.0319 7.52055 18.0319 7.52056 18.0319 7.52057C18.0319 7.75628 18.0786 7.98965 18.1693 8.20721C18.26 8.42478 18.3929 8.62222 18.5603 8.78813C18.7278 8.95404 18.9264 9.08512 19.1448 9.17382C19.3624 9.2622 19.5954 9.30674 19.8302 9.30489H23.5384H24.4278L23.9655 8.54501C23.8035 8.27877 23.5994 8.0406 23.3611 7.83981L23.3545 7.8343L23.3478 7.82903C23.2038 7.71589 22.9082 7.44139 22.5075 7.06278C22.4203 6.98034 22.329 6.8938 22.2344 6.80419C21.9059 6.49302 21.5385 6.14494 21.1694 5.8037C20.6947 5.36477 20.2084 4.92906 19.7879 4.58909C19.578 4.41939 19.3774 4.26779 19.1981 4.15002C19.0323 4.04118 18.8375 3.92882 18.6497 3.88329ZM13.7394 7.36543H9.86269C9.41469 7.36543 8.98504 7.5434 8.66826 7.86018C8.35147 8.17697 8.1735 8.60662 8.1735 9.05462C8.1735 9.50262 8.35147 9.93227 8.66826 10.2491C8.98504 10.5658 9.41469 10.7438 9.86269 10.7438H13.7394C14.1874 10.7438 14.6171 10.5658 14.9339 10.2491C15.2507 9.93227 15.4286 9.50262 15.4286 9.05462C15.4286 8.60662 15.2507 8.17697 14.9339 7.86018C14.6171 7.5434 14.1874 7.36543 13.7394 7.36543ZM9.86269 15.9287H20.2086C20.6566 15.9287 21.0863 15.7507 21.4031 15.4339C21.7199 15.1171 21.8978 14.6875 21.8978 14.2395C21.8978 13.7915 21.7199 13.3618 21.4031 13.045C21.0863 12.7283 20.6566 12.5503 20.2086 12.5503H9.86269C9.41469 12.5503 8.98504 12.7283 8.66826 13.045C8.35147 13.3618 8.1735 13.7915 8.1735 14.2395C8.1735 14.6875 8.35147 15.1171 8.66825 15.4339C8.98504 15.7507 9.41469 15.9287 9.86269 15.9287Z" stroke="#D4CACA" stroke-opacity="0.7"/>
</svg>
