<svg width="20" height="21" viewBox="0 0 20 21" fill="none" xmlns="http://www.w3.org/2000/svg">
<g clip-path="url(#clip0_36_563)">
<path d="M10.6438 1.77375C10.4295 1.75793 10.2148 1.75001 10 1.75V0.5C10.2457 0.50012 10.4913 0.509293 10.7362 0.5275L10.6438 1.77375ZM13.1488 2.33625C12.7481 2.18162 12.3365 2.0567 11.9175 1.9625L12.1913 0.7425C12.6713 0.85 13.1404 0.9925 13.5987 1.17L13.1488 2.33625ZM14.8612 3.22375C14.6825 3.10455 14.4995 2.99198 14.3125 2.88625L14.9288 1.79875C15.3562 2.04082 15.7652 2.31406 16.1525 2.61625L15.3837 3.6025C15.2143 3.47029 15.04 3.34437 14.8612 3.225V3.22375ZM17.1537 5.46125C16.9065 5.11 16.6336 4.77743 16.3375 4.46625L17.2425 3.60375C17.5808 3.96125 17.8921 4.34042 18.1763 4.74125L17.1537 5.46125ZM18.0837 7.15125C18.0018 6.95304 17.9126 6.75791 17.8163 6.56625L18.9325 6.00375C19.1531 6.44265 19.3412 6.89722 19.495 7.36375L18.3075 7.755C18.2403 7.55107 18.1657 7.34969 18.0837 7.15125ZM18.7463 10.285C18.7361 9.85543 18.6943 9.42719 18.6213 9.00375L19.8525 8.79125C19.9358 9.27458 19.9842 9.76208 19.9975 10.2537L18.7463 10.285ZM18.5825 12.2075C18.6242 11.9958 18.6579 11.7833 18.6837 11.57L19.925 11.7238C19.8648 12.2114 19.7687 12.694 19.6375 13.1675L18.4325 12.8337C18.49 12.6279 18.54 12.4192 18.5825 12.2075ZM17.3925 15.1812C17.6225 14.8179 17.825 14.4396 18 14.0462L19.1425 14.5525C18.9425 15.0025 18.7112 15.435 18.4487 15.85L17.3925 15.1812ZM16.1875 16.6875C16.34 16.535 16.4858 16.3775 16.625 16.215L17.5725 17.0312C17.4121 17.2173 17.2449 17.3975 17.0712 17.5712L16.1875 16.6875Z" fill="white"/>
<path d="M10 1.75C8.5611 1.7501 7.14443 2.10506 5.87547 2.78342C4.60651 3.46179 3.52443 4.44263 2.72507 5.63906C1.92571 6.8355 1.43374 8.2106 1.29274 9.64258C1.15174 11.0746 1.36606 12.5192 1.91672 13.8486C2.46738 15.1779 3.33738 16.351 4.44966 17.2638C5.56194 18.1766 6.88217 18.8011 8.29342 19.0818C9.70466 19.3626 11.1634 19.291 12.5403 18.8733C13.9173 18.4557 15.17 17.7049 16.1875 16.6875L17.0712 17.5712C15.9084 18.7347 14.4766 19.5934 12.9025 20.0712C11.3285 20.5491 9.66096 20.6313 8.04758 20.3106C6.4342 19.9899 4.92482 19.2762 3.65318 18.2328C2.38155 17.1893 1.38692 15.8483 0.757416 14.3286C0.127915 12.8089 -0.117019 11.1573 0.0443161 9.52034C0.205651 7.88332 0.768273 6.31138 1.68233 4.94377C2.59639 3.57617 3.83367 2.45514 5.28453 1.68C6.7354 0.904869 8.35505 0.499564 10 0.5V1.75Z" fill="white"/>
<path d="M9.375 4.25C9.54076 4.25 9.69973 4.31585 9.81694 4.43306C9.93415 4.55027 10 4.70924 10 4.875V11.3875L14.06 13.7075C14.1997 13.7918 14.301 13.9274 14.342 14.0854C14.3831 14.2433 14.3608 14.4111 14.2798 14.5527C14.1988 14.6944 14.0657 14.7989 13.9087 14.8437C13.7518 14.8885 13.5836 14.8701 13.44 14.7925L9.065 12.2925C8.96934 12.2379 8.88982 12.1589 8.83451 12.0636C8.77919 11.9684 8.75004 11.8602 8.75 11.75V4.875C8.75 4.70924 8.81585 4.55027 8.93306 4.43306C9.05027 4.31585 9.20924 4.25 9.375 4.25Z" fill="white"/>
</g>
<defs>
<clipPath id="clip0_36_563">
<rect width="20" height="20" fill="white" transform="translate(0 0.5)"/>
</clipPath>
</defs>
</svg>
