<svg width="18" height="21" viewBox="0 0 18 21" fill="none" xmlns="http://www.w3.org/2000/svg">
<path d="M10 1.75C8.5611 1.7501 7.14443 2.10506 5.87547 2.78342C4.60651 3.46179 3.52443 4.44263 2.72507 5.63906C1.92571 6.8355 1.43374 8.2106 1.29274 9.64258C1.15174 11.0746 1.36606 12.5192 1.91672 13.8486C2.46738 15.1779 3.33738 16.351 4.44966 17.2638C5.56194 18.1766 6.88217 18.8011 8.29342 19.0818C9.70466 19.3626 11.1634 19.291 12.5403 18.8733C13.9173 18.4557 15.17 17.7049 16.1875 16.6875L17.0712 17.5712C15.9084 18.7347 14.4766 19.5934 12.9025 20.0712C11.3285 20.5491 9.66096 20.6313 8.04758 20.3106C6.4342 19.9899 4.92482 19.2762 3.65318 18.2328C2.38155 17.1893 1.38692 15.8483 0.757416 14.3286C0.127915 12.8089 -0.117019 11.1573 0.0443161 9.52034C0.205651 7.88332 0.768273 6.31138 1.68233 4.94377C2.59639 3.57617 3.83367 2.45514 5.28453 1.68C6.7354 0.904869 8.35505 0.499564 10 0.5V1.75Z" fill="white"/>
</svg>
