<svg width="20" height="20" viewBox="0 0 20 20" fill="none" xmlns="http://www.w3.org/2000/svg">
<path d="M11.625 18.9375C11.625 19.153 11.7106 19.3597 11.863 19.512C12.0153 19.6644 12.222 19.75 12.4375 19.75H18.125C18.556 19.75 18.9693 19.5788 19.274 19.274C19.5788 18.9693 19.75 18.556 19.75 18.125V1.875C19.75 1.44402 19.5788 1.0307 19.274 0.725951C18.9693 0.421205 18.556 0.25 18.125 0.25H12.4375C12.222 0.25 12.0153 0.335603 11.863 0.487976C11.7106 0.640349 11.625 0.847012 11.625 1.0625C11.625 1.27799 11.7106 1.48465 11.863 1.63702C12.0153 1.7894 12.222 1.875 12.4375 1.875H18.125V18.125H12.4375C12.222 18.125 12.0153 18.2106 11.863 18.363C11.7106 18.5153 11.625 18.722 11.625 18.9375ZM0.487656 9.42516L4.55016 5.36266C4.70261 5.2102 4.90939 5.12455 5.125 5.12455C5.34061 5.12455 5.54739 5.2102 5.69984 5.36266C5.8523 5.51511 5.93795 5.72189 5.93795 5.9375C5.93795 6.15311 5.8523 6.35989 5.69984 6.51234L3.02367 9.1875H12.4375C12.653 9.1875 12.8597 9.2731 13.012 9.42548C13.1644 9.57785 13.25 9.78451 13.25 10C13.25 10.2155 13.1644 10.4222 13.012 10.5745C12.8597 10.7269 12.653 10.8125 12.4375 10.8125H3.02367L5.69984 13.4877C5.8523 13.6401 5.93795 13.8469 5.93795 14.0625C5.93795 14.2781 5.8523 14.4849 5.69984 14.6373C5.54739 14.7898 5.34061 14.8755 5.125 14.8755C4.90939 14.8755 4.70261 14.7898 4.55016 14.6373L0.487656 10.5748C0.412113 10.4994 0.352182 10.4098 0.311295 10.3111C0.270407 10.2125 0.249361 10.1068 0.249361 10C0.249361 9.89322 0.270407 9.7875 0.311295 9.68886C0.352182 9.59023 0.412113 9.50062 0.487656 9.42516Z" fill="white"/>
</svg>
