<svg width="10" height="10" viewBox="0 0 10 10" fill="none" xmlns="http://www.w3.org/2000/svg">
<path d="M5.58313 1.09623C5.29672 0.946819 4.90386 0.944432 4.61554 1.09337C3.38493 1.7292 2.26937 2.45763 1.29318 3.26436C1.16239 3.37224 1.07647 3.5226 1.0779 3.69493C1.07933 3.86677 1.16764 4.01523 1.29748 4.12168C2.26602 4.91408 3.38255 5.64299 4.5912 6.27357C4.87761 6.42298 5.27047 6.42537 5.55879 6.27644C6.7894 5.64061 7.90496 4.91217 8.88115 4.10545C9.01194 3.99757 9.09786 3.8472 9.09643 3.67488C9.095 3.50303 9.00669 3.35458 8.87685 3.24813C7.90831 2.45572 6.79178 1.72681 5.58313 1.09623Z" fill="white"/>
<path d="M9.36337 5.9408C9.40459 5.91657 9.44053 5.88432 9.46909 5.84597C9.49764 5.80762 9.51822 5.76393 9.52961 5.7175C9.54101 5.67106 9.54298 5.62281 9.53543 5.5756C9.52787 5.52839 9.51093 5.48317 9.48561 5.44261C9.46029 5.40205 9.42711 5.36697 9.38801 5.33945C9.34892 5.31192 9.3047 5.2925 9.25798 5.28235C9.21126 5.27219 9.16298 5.27149 9.11598 5.28029C9.06899 5.2891 9.02423 5.30723 8.98435 5.33361L6.0687 7.15375C5.80902 7.31605 5.45626 7.40627 5.08727 7.40627C4.7178 7.40627 4.36504 7.31557 4.10536 7.15375L1.22216 5.35414C1.14158 5.30388 1.04433 5.28769 0.951811 5.30913C0.859292 5.33057 0.779078 5.38788 0.728818 5.46846C0.678557 5.54904 0.662366 5.64629 0.683806 5.73881C0.705246 5.83133 0.762562 5.91154 0.843143 5.9618L3.72634 7.76142C4.12206 8.00821 4.61278 8.12229 5.08679 8.12229C5.56175 8.12229 6.05247 8.00773 6.44819 7.76094L9.36337 5.9408Z" fill="white"/>
<path d="M9.36325 7.73304C9.40446 7.7088 9.44041 7.67656 9.46896 7.63821C9.49751 7.59985 9.51809 7.55617 9.52949 7.50973C9.54088 7.4633 9.54286 7.41505 9.5353 7.36784C9.52774 7.32063 9.51081 7.2754 9.48549 7.23484C9.46017 7.19428 9.42698 7.15921 9.38789 7.13168C9.34879 7.10416 9.30458 7.08474 9.25786 7.07458C9.21114 7.06442 9.16285 7.06372 9.11586 7.07253C9.06886 7.08133 9.02411 7.09946 8.98423 7.12585L6.45905 8.70254C6.09053 8.93262 5.59695 9.05721 5.08714 9.05721C4.57733 9.05721 4.08375 8.9331 3.71476 8.70254L1.22204 7.14637C1.18214 7.12146 1.13772 7.10464 1.09132 7.09689C1.04492 7.08914 0.99745 7.0906 0.951617 7.10119C0.905784 7.11179 0.862486 7.13131 0.824196 7.15863C0.785905 7.18596 0.753373 7.22056 0.728455 7.26046C0.703537 7.30036 0.686722 7.34478 0.67897 7.39118C0.671218 7.43758 0.67268 7.48505 0.683274 7.53088C0.693868 7.57671 0.713386 7.62001 0.740713 7.6583C0.76804 7.69659 0.802641 7.72912 0.842542 7.75404L3.33527 9.3102C3.8403 9.62526 4.47184 9.77323 5.08714 9.77323C5.70245 9.77323 6.3335 9.62525 6.83902 9.30973L9.36325 7.73304Z" fill="white"/>
</svg>
