<svg width="17" height="16" viewBox="0 0 17 16" fill="none" xmlns="http://www.w3.org/2000/svg">
<g id="ClockCountdown">
<path id="Vector" d="M13.5 6C13.5 5.85167 13.544 5.70666 13.6264 5.58333C13.7088 5.45999 13.8259 5.36386 13.963 5.3071C14.1 5.25033 14.2508 5.23548 14.3963 5.26442C14.5418 5.29335 14.6754 5.36479 14.7803 5.46967C14.8852 5.57456 14.9566 5.7082 14.9856 5.85369C15.0145 5.99917 14.9996 6.14997 14.9429 6.28702C14.8861 6.42406 14.79 6.5412 14.6666 6.62361C14.5433 6.70602 14.3983 6.75 14.25 6.75C14.0511 6.75 13.8603 6.67099 13.7196 6.53033C13.579 6.38968 13.5 6.19892 13.5 6ZM12.75 4.50001C12.8983 4.50001 13.0433 4.45602 13.1666 4.37361C13.29 4.2912 13.3861 4.17406 13.4429 4.03702C13.4996 3.89997 13.5145 3.74917 13.4856 3.60369C13.4566 3.4582 13.3852 3.32456 13.2803 3.21967C13.1754 3.11479 13.0418 3.04335 12.8963 3.01442C12.7508 2.98548 12.6 3.00033 12.463 3.0571C12.3259 3.11386 12.2088 3.20999 12.1264 3.33333C12.044 3.45666 12 3.60167 12 3.75001C12 3.94892 12.079 4.13968 12.2196 4.28034C12.3603 4.42099 12.5511 4.50001 12.75 4.50001ZM14.5412 8C14.4091 7.98911 14.2781 8.03112 14.177 8.11679C14.0758 8.20246 14.0128 8.32479 14.0018 8.45688C13.9124 9.50217 13.5262 10.5002 12.8888 11.3334C12.2514 12.1667 11.3892 12.8005 10.4037 13.1604C9.4183 13.5203 8.35056 13.5913 7.32616 13.3649C6.30176 13.1386 5.36332 12.6244 4.62125 11.8828C3.87918 11.1412 3.36437 10.203 3.13738 9.17878C2.91038 8.15452 2.98066 7.08674 3.33993 6.10106C3.69921 5.11539 4.33253 4.25283 5.16539 3.61489C5.99825 2.97694 6.99599 2.59014 8.04122 2.50001C8.10688 2.49459 8.17083 2.47629 8.22942 2.44616C8.28801 2.41603 8.34009 2.37465 8.38269 2.32439C8.42529 2.27413 8.45757 2.21597 8.4777 2.15324C8.49782 2.0905 8.50539 2.02442 8.49997 1.95875C8.49455 1.89309 8.47626 1.82914 8.44613 1.77055C8.41599 1.71196 8.37462 1.65988 8.32436 1.61728C8.2741 1.57468 8.21594 1.5424 8.1532 1.52228C8.09047 1.50216 8.02438 1.49459 7.95872 1.5C6.72374 1.60623 5.54478 2.06297 4.56056 2.81648C3.57634 3.56999 2.82779 4.58892 2.40299 5.7534C1.97819 6.91788 1.89481 8.17946 2.16265 9.38972C2.4305 10.6 3.03843 11.7086 3.91492 12.5851C4.79141 13.4616 5.89999 14.0695 7.11025 14.3373C8.32051 14.6052 9.5821 14.5218 10.7466 14.097C11.9111 13.6722 12.93 12.9236 13.6835 11.9394C14.437 10.9552 14.8937 9.77624 15 8.54125C15.0056 8.47555 14.9982 8.40938 14.9782 8.34655C14.9581 8.28372 14.9259 8.22547 14.8832 8.17516C14.8406 8.12485 14.7884 8.08348 14.7297 8.05342C14.671 8.02336 14.607 8.0052 14.5412 8ZM8.49997 3.50001C9.38999 3.50001 10.26 3.76393 11 4.25839C11.7401 4.75286 12.3168 5.45566 12.6574 6.27793C12.998 7.1002 13.0871 8.005 12.9135 8.87791C12.7399 9.75083 12.3113 10.5526 11.682 11.182C11.0526 11.8113 10.2508 12.2399 9.37788 12.4135C8.50496 12.5872 7.60016 12.4981 6.7779 12.1575C5.95563 11.8169 5.25282 11.2401 4.75836 10.5001C4.26389 9.76005 3.99997 8.89002 3.99997 8C4.00129 6.80694 4.47583 5.66311 5.31945 4.81949C6.16308 3.97586 7.3069 3.50133 8.49997 3.50001ZM7.99997 8C7.99997 8.13261 8.05265 8.25979 8.14642 8.35356C8.24019 8.44733 8.36736 8.5 8.49997 8.5H11.5C11.6326 8.5 11.7598 8.44733 11.8535 8.35356C11.9473 8.25979 12 8.13261 12 8C12 7.8674 11.9473 7.74022 11.8535 7.64645C11.7598 7.55268 11.6326 7.5 11.5 7.5H8.99997V5.00001C8.99997 4.8674 8.94729 4.74022 8.85353 4.64645C8.75976 4.55268 8.63258 4.50001 8.49997 4.50001C8.36736 4.50001 8.24019 4.55268 8.14642 4.64645C8.05265 4.74022 7.99997 4.8674 7.99997 5.00001V8ZM10.5 3.00001C10.6483 3.00001 10.7933 2.95602 10.9166 2.87361C11.04 2.7912 11.1361 2.67406 11.1929 2.53702C11.2496 2.39997 11.2645 2.24917 11.2356 2.10369C11.2066 1.9582 11.1352 1.82456 11.0303 1.71967C10.9254 1.61479 10.7918 1.54335 10.6463 1.51442C10.5008 1.48548 10.35 1.50033 10.213 1.5571C10.0759 1.61386 9.95878 1.70999 9.87637 1.83333C9.79396 1.95666 9.74997 2.10167 9.74997 2.25001C9.74997 2.44892 9.82899 2.63968 9.96964 2.78034C10.1103 2.92099 10.3011 3.00001 10.5 3.00001Z" fill="#48AF08"/>
</g>
</svg>
