<svg width="14" height="14" viewBox="0 0 14 14" fill="none" xmlns="http://www.w3.org/2000/svg">
<g id="Clock">
<path id="Vector" d="M9.63423 5.28885C9.67714 5.33171 9.71119 5.38261 9.73441 5.43864C9.75764 5.49467 9.76959 5.55473 9.76959 5.61538C9.76959 5.67604 9.75764 5.7361 9.73441 5.79213C9.71119 5.84816 9.67714 5.89906 9.63423 5.94192L6.40346 9.17269C6.3606 9.2156 6.3097 9.24965 6.25367 9.27287C6.19764 9.2961 6.13758 9.30805 6.07692 9.30805C6.01627 9.30805 5.95621 9.2961 5.90018 9.27287C5.84415 9.24965 5.79325 9.2156 5.75039 9.17269L4.36577 7.78808C4.27917 7.70147 4.23051 7.58401 4.23051 7.46154C4.23051 7.33906 4.27917 7.2216 4.36577 7.135C4.45237 7.0484 4.56983 6.99974 4.69231 6.99974C4.81479 6.99974 4.93224 7.0484 5.01885 7.135L6.07692 8.19365L8.98115 5.28885C9.02402 5.24593 9.07492 5.21189 9.13095 5.18866C9.18698 5.16544 9.24704 5.15348 9.30769 5.15348C9.36835 5.15348 9.4284 5.16544 9.48444 5.18866C9.54047 5.21189 9.59137 5.24593 9.63423 5.28885ZM13 7C13 8.18669 12.6481 9.34672 11.9888 10.3334C11.3295 11.3201 10.3925 12.0891 9.2961 12.5433C8.19975 12.9974 6.99335 13.1162 5.82946 12.8847C4.66557 12.6532 3.59648 12.0818 2.75736 11.2426C1.91825 10.4035 1.3468 9.33443 1.11529 8.17054C0.88378 7.00666 1.0026 5.80025 1.45673 4.7039C1.91085 3.60754 2.67989 2.67047 3.66658 2.01118C4.65328 1.35189 5.81331 1 7 1C8.59078 1.00168 10.1159 1.63436 11.2408 2.75921C12.3656 3.88407 12.9983 5.40922 13 7ZM12.0769 7C12.0769 5.99588 11.7792 5.01431 11.2213 4.17941C10.6634 3.34452 9.87054 2.69379 8.94286 2.30953C8.01517 1.92527 6.99437 1.82473 6.00954 2.02063C5.02472 2.21652 4.1201 2.70005 3.41008 3.41007C2.70006 4.12009 2.21653 5.02471 2.02063 6.00954C1.82474 6.99437 1.92528 8.01517 2.30954 8.94285C2.6938 9.87054 3.34452 10.6634 4.17941 11.2213C5.01431 11.7792 5.99588 12.0769 7 12.0769C8.34602 12.0754 9.63646 11.54 10.5882 10.5882C11.54 9.63646 12.0754 8.34601 12.0769 7Z" fill="#999999"/>
</g>
</svg>
