h<svg width="10" height="10" viewBox="0 0 10 10" fill="none" xmlns="http://www.w3.org/2000/svg">
<path d="M9.58906 2.50485L7.49422 0.410008C7.43328 0.349063 7.36093 0.300718 7.28131 0.267734C7.20168 0.23475 7.11634 0.217773 7.03016 0.217773C6.94397 0.217773 6.85863 0.23475 6.77901 0.267734C6.69938 0.300718 6.62703 0.349063 6.56609 0.410008L0.785939 6.19063C0.724877 6.25148 0.676459 6.32382 0.643475 6.40346C0.61049 6.48311 0.593591 6.56849 0.593751 6.6547V8.74954C0.593751 8.92359 0.662892 9.09051 0.785962 9.21358C0.909033 9.33665 1.07595 9.40579 1.25 9.40579H3.34484C3.43105 9.40595 3.51643 9.38905 3.59608 9.35607C3.67573 9.32308 3.74806 9.27466 3.80891 9.2136L9.58906 3.43298C9.65001 3.37204 9.69835 3.29969 9.73134 3.22007C9.76432 3.14044 9.7813 3.0551 9.7813 2.96891C9.7813 2.88273 9.76432 2.79739 9.73134 2.71776C9.69835 2.63814 9.65001 2.56579 9.58906 2.50485ZM3.41094 8.81563C3.39344 8.83324 3.36967 8.84319 3.34484 8.84329H1.25C1.22514 8.84329 1.20129 8.83341 1.18371 8.81583C1.16613 8.79825 1.15625 8.7744 1.15625 8.74954V6.6547C1.15636 6.62987 1.1663 6.6061 1.18391 6.5886L5.375 2.39704L7.60203 4.62454L3.41094 8.81563ZM9.1911 3.03548L8 4.22657L5.77297 1.99954L6.96406 0.807977C6.97277 0.799261 6.98311 0.792346 6.99449 0.787628C7.00587 0.78291 7.01807 0.780481 7.03039 0.780481C7.04271 0.780481 7.05491 0.78291 7.06629 0.787628C7.07767 0.792346 7.08801 0.799261 7.09672 0.807977L9.1911 2.90282C9.19981 2.91153 9.20673 2.92187 9.21144 2.93325C9.21616 2.94463 9.21859 2.95683 9.21859 2.96915C9.21859 2.98147 9.21616 2.99367 9.21144 3.00505C9.20673 3.01643 9.19981 3.02677 9.1911 3.03548Z" fill="#F0A215"/>
</svg>
