<svg width="23" height="23" viewBox="0 0 23 23" fill="none" xmlns="http://www.w3.org/2000/svg">
<path fill-rule="evenodd" clip-rule="evenodd" d="M0.64502 11.5C0.64502 8.58666 1.80235 5.79261 3.86242 3.73254C5.92249 1.67247 8.71654 0.515137 11.6299 0.515137C14.5433 0.515137 17.3373 1.67247 19.3974 3.73254C21.4575 5.79261 22.6148 8.58666 22.6148 11.5C22.6148 14.4134 21.4575 17.2075 19.3974 19.2675C17.3373 21.3276 14.5433 22.4849 11.6299 22.4849C8.71654 22.4849 5.92249 21.3276 3.86242 19.2675C1.80235 17.2075 0.64502 14.4134 0.64502 11.5ZM10.1862 8.12171C9.01421 9.08558 8.23106 10.4414 7.98167 11.9382L7.15687 16.8958C6.9673 18.0395 8.29804 18.8078 9.19315 18.0709L13.0736 14.8784C14.2456 13.9145 15.0288 12.5587 15.2782 11.0619L16.1017 6.10425C16.2925 4.96057 14.9618 4.19225 14.0667 4.92918L10.1862 8.12171Z" fill="#393B4C"/>
</svg>
