<svg width="20" height="18" viewBox="0 0 20 18" fill="none" xmlns="http://www.w3.org/2000/svg">
<path d="M5.4541 0C2.4416 0 0 2.39721 0 5.35494C0 10.5033 6.08248 15.4226 8.92415 17.6133C8.92686 17.6154 8.92957 17.6176 8.93229 17.6197C8.95176 17.6347 8.97824 17.6561 8.9974 17.6708L8.99902 17.6692C9.28734 17.8831 9.63864 17.9992 10 18C10.3619 17.9995 10.7138 17.8834 11.0026 17.6692V17.6708C11.0082 17.6665 11.0165 17.6608 11.0221 17.6564C11.0264 17.6531 11.0325 17.6486 11.0368 17.6452C11.0422 17.6405 11.0477 17.6357 11.0531 17.6309C13.8859 15.448 20 10.5155 20 5.35494C20 2.39721 17.5584 0 14.5459 0C11.6667 0 10 2.45455 10 2.45455C10 2.45455 8.33327 0 5.4541 0Z" fill="#999999"/>
</svg>
