<svg width="26" height="26" viewBox="0 0 26 26" fill="none" xmlns="http://www.w3.org/2000/svg">
<g clip-path="url(#clip0_623_7063)">
<path d="M13 22.75C18.3848 22.75 22.75 18.3848 22.75 13C22.75 7.61522 18.3848 3.25 13 3.25C7.61522 3.25 3.25 7.61522 3.25 13C3.25 18.3848 7.61522 22.75 13 22.75Z" stroke="#8B0000" stroke-width="1.5" stroke-linecap="round" stroke-linejoin="round"/>
<path d="M8.9375 13.0001C8.9375 16.8047 10.2913 20.2029 12.4191 22.4952C12.493 22.5756 12.5828 22.6398 12.6828 22.6837C12.7828 22.7276 12.8908 22.7503 13 22.7503C13.1092 22.7503 13.2172 22.7276 13.3172 22.6837C13.4172 22.6398 13.507 22.5756 13.5809 22.4952C15.7087 20.2029 17.0625 16.8047 17.0625 13.0001C17.0625 9.1956 15.7087 5.79731 13.5809 3.50505C13.507 3.42465 13.4172 3.36047 13.3172 3.31657C13.2172 3.27267 13.1092 3.25 13 3.25C12.8908 3.25 12.7828 3.27267 12.6828 3.31657C12.5828 3.36047 12.493 3.42465 12.4191 3.50505C10.2913 5.79731 8.9375 9.1956 8.9375 13.0001Z" stroke="#8B0000" stroke-width="1.5" stroke-linecap="round" stroke-linejoin="round"/>
<path d="M3.80457 9.75H22.1955" stroke="#8B0000" stroke-width="1.5" stroke-linecap="round" stroke-linejoin="round"/>
<path d="M3.80457 16.25H22.1955" stroke="#8B0000" stroke-width="1.5" stroke-linecap="round" stroke-linejoin="round"/>
</g>
<defs>
<clipPath id="clip0_623_7063">
<rect width="26" height="26" fill="white"/>
</clipPath>
</defs>
</svg>
