<svg width="37" height="37" viewBox="0 0 37 37" fill="none" xmlns="http://www.w3.org/2000/svg">
<g id="gmail_svgrepo.com">
<path id="Vector" d="M25.3079 10.3379L18.5724 15.5944L11.683 10.3379V10.3393L11.6913 10.3464V17.7069L18.4948 23.077L25.3079 17.9143V10.3379Z" fill="#EA4335"/>
<path id="Vector_2" d="M27.076 9.05968L25.3071 10.3383V17.9147L30.8731 13.6414V11.0671C30.8731 11.0671 30.1975 7.3904 27.076 9.05968Z" fill="#FBBC05"/>
<path id="Vector_3" d="M25.3071 17.9149V27.7417H29.5731C29.5731 27.7417 30.7871 27.6167 30.8744 26.2329V13.6416L25.3071 17.9149Z" fill="#34A853"/>
<path id="Vector_4" d="M11.6916 27.75V17.7073L11.683 17.7002L11.6916 27.75Z" fill="#C5221F"/>
<path id="Vector_5" d="M11.6827 10.3391L9.92352 9.06762C6.80201 7.39834 6.125 11.0736 6.125 11.0736V13.6478L11.6827 17.6996V10.3391Z" fill="#C5221F"/>
<path id="Vector_6" d="M11.683 10.3398V17.7004L11.6916 17.7075V10.347L11.683 10.3398Z" fill="#C5221F"/>
<path id="Vector_7" d="M6.125 13.6504V26.2417C6.21102 27.6269 7.42632 27.7506 7.42632 27.7506H11.6924L11.6827 17.7007L6.125 13.6504Z" fill="#4285F4"/>
</g>
</svg>
