<svg width="30" height="29" viewBox="0 0 30 29" fill="none" xmlns="http://www.w3.org/2000/svg">
<path d="M13.3048 5.56546V5.56551V10.1796C13.3048 10.4958 13.2424 10.8089 13.1211 11.1009C12.9997 11.3929 12.822 11.6581 12.5979 11.8813C12.3739 12.1044 12.1079 12.2811 11.8154 12.4012C11.5229 12.5213 11.2096 12.5825 10.8933 12.5812H10.8913L6.30102 12.5812L6.29798 12.5812C5.98428 12.5831 5.67342 12.5216 5.38404 12.4005C5.09467 12.2794 4.83272 12.1011 4.61392 11.8762L4.61397 11.8762L4.6083 11.8706C4.38601 11.6493 4.20991 11.3861 4.09025 11.0963C3.97059 10.8064 3.90976 10.4956 3.91128 10.182H3.91129V10.1796V5.5774V5.5774C3.91128 4.94215 4.16296 4.33278 4.61122 3.88267C5.05926 3.43279 5.6672 3.17864 6.30209 3.17578H10.9029C11.2173 3.17611 11.5286 3.2388 11.8186 3.3602C12.1087 3.48164 12.3718 3.65941 12.5927 3.88324L12.5927 3.8833L12.5992 3.88968C12.8226 4.10787 13.0001 4.36852 13.1213 4.65631C13.2424 4.94409 13.3048 5.2532 13.3048 5.56546ZM16.6832 10.1815V10.1796L16.6832 5.5774L16.6832 5.57526C16.6818 5.26136 16.7436 4.95039 16.8648 4.66083C16.986 4.37127 17.1642 4.10903 17.3888 3.88969L17.3888 3.88975L17.3952 3.88324C17.6162 3.65941 17.8793 3.48164 18.1694 3.3602C18.4594 3.2388 18.7706 3.17611 19.085 3.17578H23.6848C24.3206 3.18143 24.9287 3.43648 25.3783 3.88607C25.8279 4.33564 26.0829 4.94373 26.0886 5.57944V10.1776C26.0829 10.8116 25.8293 11.4182 25.3818 11.8675C24.9346 12.3166 24.3293 12.5727 23.6957 12.5812H19.0864C18.4484 12.5769 17.8368 12.3262 17.3793 11.8816C17.1579 11.6582 16.9824 11.3935 16.863 11.1025C16.7431 10.8103 16.682 10.4973 16.6832 10.1815ZM16.1832 10.1796V5.5774V10.1796ZM26.0745 19.5824L26.0886 19.5683V22.9613C26.0829 23.5954 25.8293 24.202 25.3818 24.6513C24.9346 25.1004 24.3293 25.3565 23.6956 25.365L19.0848 25.3649L19.0797 25.365C18.4378 25.3715 17.8186 25.1281 17.3529 24.6865C17.1316 24.4645 16.9564 24.2008 16.8374 23.9108C16.7176 23.619 16.6571 23.3062 16.6594 22.9908V22.9871L16.6594 18.385L16.6594 18.3829C16.6581 18.069 16.7199 17.758 16.8411 17.4684C16.9623 17.1789 17.1405 16.9166 17.365 16.6972L17.3651 16.6973L17.3714 16.6909C17.5924 16.4671 17.8555 16.2893 18.1456 16.1679C18.4358 16.0464 18.7471 15.9837 19.0616 15.9833H23.661C24.2968 15.989 24.9049 16.244 25.3545 16.6936C25.8046 17.1437 26.0597 17.7526 26.0648 18.389L26.0745 19.5824ZM13.3048 18.372V18.3731V22.9721C13.2963 23.6074 13.0388 24.2141 12.5876 24.6616C12.1359 25.1096 11.5263 25.3622 10.8902 25.365L6.30102 25.365L6.29895 25.365C5.98503 25.3663 5.67396 25.3054 5.38369 25.1859C5.09342 25.0663 4.82969 24.8905 4.60772 24.6685C4.38574 24.4466 4.20992 24.1828 4.09039 23.8926L3.62943 24.0824L4.09039 23.8926C3.97086 23.6023 3.90998 23.2912 3.91129 22.9773V22.9752V18.3741C3.91408 17.738 4.16666 17.1284 4.61464 16.6768C5.06215 16.2256 5.66885 15.9681 6.3042 15.9596H10.9009C11.5402 15.9656 12.1522 16.2202 12.6071 16.6695C13.0553 17.1226 13.3062 17.7346 13.3048 18.372Z" fill="#091E40" stroke="#091E40"/>
</svg>
