<svg width="22" height="22" viewBox="0 0 22 22" fill="none" xmlns="http://www.w3.org/2000/svg">
<path d="M20.5472 6.61126L13.4637 0.847264C12.0795 -0.274735 9.91655 -0.285735 8.54311 0.836264L1.45959 6.61126C0.443027 7.43626 -0.173401 9.08626 0.0428894 10.3843L1.40552 18.6782C1.71914 20.5372 3.41702 22.0002 5.2663 22.0002H16.7297C18.5574 22.0002 20.2877 20.5042 20.6013 18.6672L21.9639 10.3733C22.1586 9.08626 21.5422 7.43626 20.5472 6.61126ZM11.8091 17.6002C11.8091 18.0512 11.4414 18.4252 10.998 18.4252C10.5546 18.4252 10.1869 18.0512 10.1869 17.6002V14.3003C10.1869 13.8493 10.5546 13.4753 10.998 13.4753C11.4414 13.4753 11.8091 13.8493 11.8091 14.3003V17.6002Z" fill="#47D8B8"/>
</svg>
