<svg width="24" height="24" viewBox="0 0 24 24" fill="none" xmlns="http://www.w3.org/2000/svg">
<g id="Info" clip-path="url(#clip0_971_8162)">
<path id="Vector" d="M13 22.75C18.3848 22.75 22.75 18.3848 22.75 13C22.75 7.61522 18.3848 3.25 13 3.25C7.61522 3.25 3.25 7.61522 3.25 13C3.25 18.3848 7.61522 22.75 13 22.75Z" stroke="#8B0000" stroke-width="1.5" stroke-linecap="round" stroke-linejoin="round"/>
<path id="Vector_2" d="M12.1875 12.1875C12.403 12.1875 12.6097 12.2731 12.762 12.4255C12.9144 12.5778 13 12.7845 13 13V17.0625C13 17.278 13.0856 17.4847 13.238 17.637C13.3903 17.7894 13.597 17.875 13.8125 17.875" stroke="#8B0000" stroke-width="1.5" stroke-linecap="round" stroke-linejoin="round"/>
<path id="Vector_3" d="M12.5938 9.75C13.2668 9.75 13.8125 9.20435 13.8125 8.53125C13.8125 7.85815 13.2668 7.3125 12.5938 7.3125C11.9207 7.3125 11.375 7.85815 11.375 8.53125C11.375 9.20435 11.9207 9.75 12.5938 9.75Z" fill="#8B0000"/>
</g>
<defs>
<clipPath id="clip0_971_8162">
<rect width="26" height="26" fill="white"/>
</clipPath>
</defs>
</svg>
