<svg width="46" height="47" viewBox="0 0 46 47" fill="none" xmlns="http://www.w3.org/2000/svg">
<g id="Group 153">
<g id="Mask group">
<mask id="mask0_977_9641" style="mask-type:alpha" maskUnits="userSpaceOnUse" x="0" y="0" width="46" height="47">
<ellipse id="Ellipse 45" cx="23" cy="23.75" rx="22.5" ry="23" fill="#D9D9D9"/>
</mask>
<g mask="url(#mask0_977_9641)">
<path id="Vector" d="M36.4286 -1.25H9.57143C4.00913 -1.25 -0.5 3.45101 -0.5 9.25V37.25C-0.5 43.049 4.00913 47.75 9.57143 47.75H36.4286C41.9909 47.75 46.5 43.049 46.5 37.25V9.25C46.5 3.45101 41.9909 -1.25 36.4286 -1.25Z" fill="url(#paint0_radial_977_9641)"/>
<path id="Vector_2" d="M36.4286 -1.25H9.57143C4.00913 -1.25 -0.5 3.45101 -0.5 9.25V37.25C-0.5 43.049 4.00913 47.75 9.57143 47.75H36.4286C41.9909 47.75 46.5 43.049 46.5 37.25V9.25C46.5 3.45101 41.9909 -1.25 36.4286 -1.25Z" fill="url(#paint1_radial_977_9641)"/>
<path id="Vector_3" d="M36.4286 -1.25H9.57143C4.00913 -1.25 -0.5 3.45101 -0.5 9.25V37.25C-0.5 43.049 4.00913 47.75 9.57143 47.75H36.4286C41.9909 47.75 46.5 43.049 46.5 37.25V9.25C46.5 3.45101 41.9909 -1.25 36.4286 -1.25Z" fill="url(#paint2_radial_977_9641)"/>
</g>
</g>
<path id="Vector_4" d="M31.75 16.375C31.75 17.4105 30.9105 18.25 29.875 18.25C28.8395 18.25 28 17.4105 28 16.375C28 15.3395 28.8395 14.5 29.875 14.5C30.9105 14.5 31.75 15.3395 31.75 16.375Z" fill="white"/>
<path id="Vector_5" fill-rule="evenodd" clip-rule="evenodd" d="M23 29.5C26.4517 29.5 29.25 26.7017 29.25 23.25C29.25 19.7982 26.4517 17 23 17C19.5482 17 16.75 19.7982 16.75 23.25C16.75 26.7017 19.5482 29.5 23 29.5ZM23 27C25.0711 27 26.75 25.3211 26.75 23.25C26.75 21.1789 25.0711 19.5 23 19.5C20.9289 19.5 19.25 21.1789 19.25 23.25C19.25 25.3211 20.9289 27 23 27Z" fill="white"/>
<path id="Vector_6" fill-rule="evenodd" clip-rule="evenodd" d="M10.5 22.75C10.5 18.5496 10.5 16.4494 11.3175 14.8451C12.0365 13.4339 13.1839 12.2865 14.5951 11.5675C16.1994 10.75 18.2996 10.75 22.5 10.75H23.5C27.7004 10.75 29.8006 10.75 31.4049 11.5675C32.8161 12.2865 33.9635 13.4339 34.6825 14.8451C35.5 16.4494 35.5 18.5496 35.5 22.75V23.75C35.5 27.9504 35.5 30.0506 34.6825 31.6549C33.9635 33.0661 32.8161 34.2135 31.4049 34.9325C29.8006 35.75 27.7004 35.75 23.5 35.75H22.5C18.2996 35.75 16.1994 35.75 14.5951 34.9325C13.1839 34.2135 12.0365 33.0661 11.3175 31.6549C10.5 30.0506 10.5 27.9504 10.5 23.75V22.75ZM22.5 13.25H23.5C25.6415 13.25 27.0971 13.252 28.2224 13.3439C29.3185 13.4334 29.879 13.5957 30.27 13.795C31.2108 14.2743 31.9756 15.0392 32.455 15.98C32.6542 16.371 32.8166 16.9315 32.9061 18.0276C32.998 19.1529 33 20.6085 33 22.75V23.75C33 25.8915 32.998 27.3471 32.9061 28.4724C32.8166 29.5685 32.6542 30.129 32.455 30.52C31.9756 31.4608 31.2108 32.2256 30.27 32.705C29.879 32.9042 29.3185 33.0666 28.2224 33.1561C27.0971 33.248 25.6415 33.25 23.5 33.25H22.5C20.3585 33.25 18.9029 33.248 17.7776 33.1561C16.6815 33.0666 16.121 32.9042 15.73 32.705C14.7892 32.2256 14.0243 31.4608 13.545 30.52C13.3457 30.129 13.1834 29.5685 13.0939 28.4724C13.002 27.3471 13 25.8915 13 23.75V22.75C13 20.6085 13.002 19.1529 13.0939 18.0276C13.1834 16.9315 13.3457 16.371 13.545 15.98C14.0243 15.0392 14.7892 14.2743 15.73 13.795C16.121 13.5957 16.6815 13.4334 17.7776 13.3439C18.9029 13.252 20.3585 13.25 22.5 13.25Z" fill="white"/>
</g>
<defs>
<radialGradient id="paint0_radial_977_9641" cx="0" cy="0" r="1" gradientUnits="userSpaceOnUse" gradientTransform="translate(16.2857 35.5) rotate(-56.4837) scale(44.0791 43.4004)">
<stop stop-color="#B13589"/>
<stop offset="0.79309" stop-color="#C62F94"/>
<stop offset="1" stop-color="#8A3AC8"/>
</radialGradient>
<radialGradient id="paint1_radial_977_9641" cx="0" cy="0" r="1" gradientUnits="userSpaceOnUse" gradientTransform="translate(14.6071 49.5) rotate(-66.0349) scale(39.2594 38.1969)">
<stop stop-color="#E0E8B7"/>
<stop offset="0.444662" stop-color="#FB8A2E"/>
<stop offset="0.71474" stop-color="#E2425C"/>
<stop offset="1" stop-color="#E2425C" stop-opacity="0"/>
</radialGradient>
<radialGradient id="paint2_radial_977_9641" cx="0" cy="0" r="1" gradientUnits="userSpaceOnUse" gradientTransform="translate(-3.01786 0.5) rotate(-8.47114) scale(65.3379 14.5445)">
<stop offset="0.156701" stop-color="#406ADC"/>
<stop offset="0.467799" stop-color="#6A45BE"/>
<stop offset="1" stop-color="#6A45BE" stop-opacity="0"/>
</radialGradient>
</defs>
</svg>
