<svg width="17" height="17" viewBox="0 0 17 17" fill="none" xmlns="http://www.w3.org/2000/svg">
<path opacity="0.65" d="M14.8086 2.19143C13.8349 1.2169 12.5596 0.601071 11.191 0.444394C9.82226 0.287716 8.44086 0.599436 7.27208 1.32871C6.10331 2.05798 5.21613 3.16176 4.75526 4.46002C4.2944 5.75828 4.28703 7.17439 4.73438 8.47737L0.351564 12.8602C0.249795 12.9616 0.169098 13.0821 0.114124 13.2149C0.0591502 13.3476 0.0309853 13.4899 0.0312519 13.6336V15.875C0.0312519 16.1651 0.146486 16.4433 0.351604 16.6484C0.556722 16.8535 0.834921 16.9688 1.125 16.9688H3.625C3.74932 16.9688 3.86855 16.9194 3.95646 16.8315C4.04437 16.7436 4.09375 16.6243 4.09375 16.5V15.0938H5.5C5.62432 15.0938 5.74355 15.0444 5.83146 14.9565C5.91937 14.8686 5.96875 14.7493 5.96875 14.625V13.2188H7.375C7.49928 13.2187 7.61843 13.1692 7.70625 13.0813L8.52266 12.2656C9.159 12.484 9.82725 12.5949 10.5 12.5938H10.5078C11.7123 12.5921 12.8892 12.2335 13.89 11.5633C14.8908 10.8931 15.6706 9.94139 16.1308 8.8283C16.591 7.71522 16.711 6.49072 16.4756 5.30946C16.2403 4.12821 15.6602 3.04318 14.8086 2.19143ZM15.6563 6.66877C15.5688 9.41565 13.2602 11.6531 10.5094 11.6563C9.85369 11.6577 9.20376 11.5339 8.59453 11.2914C8.50819 11.2538 8.41251 11.2431 8.31998 11.2607C8.22745 11.2782 8.14235 11.3232 8.07578 11.3899L7.18047 12.2813H5.5C5.37568 12.2813 5.25645 12.3307 5.16855 12.4186C5.08064 12.5065 5.03125 12.6257 5.03125 12.75V14.1563H3.625C3.50068 14.1563 3.38145 14.2057 3.29355 14.2936C3.20564 14.3815 3.15625 14.5007 3.15625 14.625V16.0313H1.125C1.08356 16.0313 1.04382 16.0148 1.01452 15.9855C0.985214 15.9562 0.968752 15.9165 0.968752 15.875V13.6336C0.968719 13.5924 0.985008 13.5528 1.01406 13.5235L5.61016 8.92737C5.67678 8.8608 5.72181 8.7757 5.73936 8.68317C5.75692 8.59064 5.7462 8.49497 5.7086 8.40862C5.4656 7.79955 5.34174 7.14952 5.34375 6.49377C5.34375 3.74299 7.58438 1.4344 10.3305 1.34377C11.0362 1.32017 11.7392 1.44175 12.396 1.70099C13.0528 1.96024 13.6493 2.35161 14.1486 2.85085C14.6479 3.3501 15.0394 3.94658 15.2987 4.60332C15.5581 5.26006 15.6798 5.96307 15.6563 6.66877ZM12.8438 4.93752C12.8438 5.09204 12.7979 5.24309 12.7121 5.37156C12.6262 5.50004 12.5042 5.60017 12.3615 5.6593C12.2187 5.71843 12.0616 5.73391 11.9101 5.70376C11.7585 5.67362 11.6193 5.59921 11.5101 5.48995C11.4008 5.38069 11.3264 5.24149 11.2963 5.08994C11.2661 4.93839 11.2816 4.78131 11.3407 4.63855C11.3999 4.4958 11.5 4.37378 11.6285 4.28794C11.7569 4.20209 11.908 4.15627 12.0625 4.15627C12.2697 4.15627 12.4684 4.23858 12.6149 4.3851C12.7614 4.53161 12.8438 4.73032 12.8438 4.93752Z" fill="black"/>
</svg>
