<svg width="24" height="24" viewBox="0 0 24 24" fill="none" xmlns="http://www.w3.org/2000/svg">
<g id="Keyhole">
<path id="Vector" d="M13 2.4375C10.9109 2.4375 8.86879 3.05698 7.13179 4.2176C5.3948 5.37822 4.04098 7.02786 3.24153 8.95791C2.44208 10.8879 2.2329 13.0117 2.64046 15.0606C3.04802 17.1096 4.054 18.9916 5.53119 20.4688C7.00838 21.946 8.89044 22.952 10.9394 23.3595C12.9883 23.7671 15.1121 23.5579 17.0421 22.7585C18.9721 21.959 20.6218 20.6052 21.7824 18.8682C22.943 17.1312 23.5625 15.0891 23.5625 13C23.5595 10.1996 22.4458 7.51466 20.4656 5.53445C18.4853 3.55424 15.8004 2.44046 13 2.4375ZM13 21.9375C11.2323 21.9375 9.50436 21.4133 8.0346 20.4313C6.56483 19.4492 5.41929 18.0533 4.74283 16.4202C4.06637 14.7871 3.88938 12.9901 4.23424 11.2564C4.57909 9.52268 5.43031 7.93016 6.68024 6.68023C7.93017 5.4303 9.52268 4.57909 11.2564 4.23423C12.9901 3.88938 14.7871 4.06637 16.4202 4.74283C18.0534 5.41928 19.4492 6.56483 20.4313 8.03459C21.4133 9.50435 21.9375 11.2323 21.9375 13C21.9348 15.3695 20.9923 17.6413 19.3168 19.3168C17.6413 20.9923 15.3696 21.9348 13 21.9375ZM13 7.3125C12.1966 7.31267 11.4114 7.55103 10.7435 7.99743C10.0755 8.44384 9.55497 9.07825 9.24756 9.82047C8.94015 10.5627 8.8597 11.3794 9.01638 12.1673C9.17306 12.9552 9.55984 13.679 10.1278 14.2472L9.02485 17.0178C8.95124 17.2026 8.92399 17.4027 8.94549 17.6004C8.96699 17.7982 9.03657 17.9877 9.14817 18.1524C9.25977 18.3171 9.40999 18.452 9.58571 18.5453C9.76143 18.6385 9.95731 18.6874 10.1563 18.6875H15.8438C16.0427 18.6874 16.2386 18.6385 16.4143 18.5453C16.59 18.452 16.7402 18.3171 16.8518 18.1524C16.9634 17.9877 17.033 17.7982 17.0545 17.6004C17.076 17.4027 17.0488 17.2026 16.9752 17.0178L15.8722 14.2472C16.4402 13.679 16.8269 12.9552 16.9836 12.1673C17.1403 11.3794 17.0599 10.5627 16.7524 9.82047C16.445 9.07825 15.9245 8.44384 15.2566 7.99743C14.5886 7.55103 13.8034 7.31267 13 7.3125ZM14.1487 14.3102L15.2445 17.0625H10.7555L11.8513 14.3102C11.9182 14.1422 11.9272 13.9567 11.8768 13.783C11.8264 13.6093 11.7195 13.4575 11.5731 13.3514C11.1552 13.0497 10.8438 12.6233 10.6835 12.1336C10.5231 11.6438 10.5222 11.1158 10.6807 10.6254C10.8392 10.135 11.1491 9.70754 11.5658 9.40431C11.9825 9.10109 12.4846 8.93775 13 8.93775C13.5154 8.93775 14.0175 9.10109 14.4342 9.40431C14.8509 9.70754 15.1608 10.135 15.3193 10.6254C15.4778 11.1158 15.4769 11.6438 15.3165 12.1336C15.1562 12.6233 14.8448 13.0497 14.427 13.3514C14.2805 13.4575 14.1736 13.6093 14.1232 13.783C14.0728 13.9567 14.0818 14.1422 14.1487 14.3102Z" fill="#8B0000"/>
</g>
</svg>
