<svg width="18" height="23" viewBox="0 0 18 23" fill="none" xmlns="http://www.w3.org/2000/svg">
<path d="M0.5 2.78946V21.6183C0.499912 21.7394 0.53136 21.8584 0.59125 21.9637C0.651139 22.0689 0.737406 22.1568 0.841558 22.2186C0.945709 22.2803 1.06416 22.3139 1.18524 22.3161C1.30632 22.3182 1.42586 22.2887 1.5321 22.2306L8.86837 18.2277L16.2046 22.2306C16.3109 22.2887 16.4304 22.3182 16.5515 22.3161C16.6726 22.3139 16.791 22.2803 16.8952 22.2186C16.9993 22.1568 17.0856 22.0689 17.1455 21.9637C17.2054 21.8584 17.2368 21.7394 17.2367 21.6183V2.78946C17.2367 2.04965 16.9429 1.34014 16.4197 0.817013C15.8966 0.293888 15.1871 0 14.4473 0L3.28946 0C2.54965 0 1.84014 0.293888 1.31701 0.817013C0.793888 1.34014 0.5 2.04965 0.5 2.78946Z" fill="#393B4C"/>
</svg>
