<svg width="47" height="47" viewBox="0 0 47 47" fill="none" xmlns="http://www.w3.org/2000/svg">
<g id="Group 154">
<circle id="Ellipse 46" cx="23.5" cy="23.75" r="23" fill="#0A66C2"/>
<ellipse id="Ellipse 47" cx="23.5" cy="23.25" rx="17" ry="16.5" fill="white"/>
<g id="Mask group">
<mask id="mask0_977_9650" style="mask-type:alpha" maskUnits="userSpaceOnUse" x="0" y="0" width="47" height="47">
<circle id="Ellipse 48" cx="23.5" cy="23.75" r="23" fill="#D9D9D9"/>
</mask>
<g mask="url(#mask0_977_9650)">
<path id="Vector" d="M35.4696 34.7202H30.4319V26.8307C30.4319 24.9494 30.3983 22.5275 27.8117 22.5275C25.1879 22.5275 24.7865 24.5773 24.7865 26.6937V34.7196H19.7487V18.4957H24.5849V20.7128H24.6526C25.6388 19.0267 27.4724 18.0197 29.4243 18.0921C34.5303 18.0921 35.4717 21.4507 35.4717 25.82L35.4696 34.7202ZM14.0645 16.278C12.4499 16.2783 11.1408 14.9696 11.1405 13.355C11.1402 11.7403 12.4488 10.4312 14.0634 10.4309C15.678 10.4306 16.9871 11.7393 16.9874 13.3539C16.9876 14.1293 16.6797 14.8729 16.1315 15.4213C15.5834 15.9697 14.8398 16.2778 14.0645 16.278ZM16.5833 34.7202H11.5404V18.4957H16.5833V34.7202ZM37.9811 5.75254H9.0089C7.63961 5.73708 6.51671 6.83394 6.5 8.20324V37.2963C6.51614 38.6662 7.63895 39.7642 9.0089 39.7498H37.9811C39.3538 39.7668 40.481 38.6689 40.5 37.2963V8.20114C40.4804 6.82913 39.3531 5.73234 37.9811 5.75022" fill="#0A66C2"/>
</g>
</g>
</g>
</svg>
