<svg width="10" height="11" viewBox="0 0 10 11" fill="none" xmlns="http://www.w3.org/2000/svg">
<path d="M7.88453 3.9165H7.56402V2.72385C7.56402 1.28979 6.49976 0.166504 4.98806 0.166504C3.47027 0.166504 2.43582 1.31369 2.43582 2.72385V3.9165H2.1153C1.40825 3.9165 0.833252 4.47713 0.833252 5.1665V8.9165C0.833252 9.60588 1.40825 10.1665 2.1153 10.1665H7.88453C8.59158 10.1665 9.16658 9.60588 9.16658 8.9165V5.1665C9.16658 4.47713 8.59158 3.9165 7.88453 3.9165ZM3.07684 2.72385C3.07684 1.65854 3.82364 0.791504 4.98806 0.791504C6.14046 0.791504 6.923 1.64025 6.923 2.72385V3.9165H3.07684V2.72385ZM8.52557 8.9165C8.52557 9.26103 8.23791 9.5415 7.88454 9.5415H2.11531C1.76195 9.5415 1.47429 9.26103 1.47429 8.9165V5.1665C1.47429 4.82197 1.76195 4.5415 2.11531 4.5415H7.88454C8.23791 4.5415 8.52557 4.82197 8.52557 5.1665V8.9165ZM4.99993 5.7915C4.64592 5.7915 4.3589 6.07135 4.3589 6.4165C4.3589 6.64729 4.48871 6.8465 4.67942 6.95478V7.979C4.67942 8.1515 4.82301 8.2915 4.99993 8.2915C5.17685 8.2915 5.32044 8.1515 5.32044 7.979V6.95478C5.51115 6.8465 5.64095 6.64713 5.64095 6.4165C5.64095 6.07135 5.35393 5.7915 4.99993 5.7915Z" fill="#47D8B8"/>
</svg>
