<svg width="161" height="149" viewBox="0 0 161 149" fill="none" xmlns="http://www.w3.org/2000/svg">
<g id="Group 388 2" clip-path="url(#clip0_623_5929)">
<path id="Vector" d="M145.92 88.2011C152.656 84.5977 155.887 81.5766 160.788 74.5" stroke="#8B0000" stroke-linecap="round"/>
<path id="Vector_2" d="M111.935 11.3469C111.915 11.3252 111.894 11.3034 111.873 11.2817C111.961 11.4444 112.053 11.6089 112.148 11.7751L111.935 11.3469Z" fill="#8B0000"/>
<path id="Vector_3" d="M94.5184 1.92724C102.266 3.47275 106.175 5.32053 111.935 11.3468L112.148 11.7749C100.642 -8.37283 137.848 -3.21126 146.981 35.752" stroke="#8B0000" stroke-linecap="round"/>
<path id="Vector_4" d="M75.8272 34.2529C75.8272 34.8441 76.3026 35.3233 76.8892 35.3233C77.4759 35.3233 77.9512 34.8441 77.9512 34.2529H75.8272ZM71.2253 26.9742C71.2253 30.1271 73.761 32.683 76.8892 32.683C80.0175 32.683 82.5531 30.1271 82.5531 26.9742C82.5531 23.8213 80.0175 21.2654 76.8892 21.2654C73.761 21.2654 71.2253 23.8213 71.2253 26.9742ZM77.9512 34.2529V26.9742H75.8272V34.2529H77.9512Z" fill="#8B0000"/>
<path id="Vector_5" d="M143.371 86.0603H132.751C131.476 72.3591 127.36 63.1079 118.945 55.2327C94.2951 32.1653 56.9422 31.2826 27.3998 53.9482C52.7312 31.8923 91.4009 27.3521 117.245 44.1005C126.21 49.9102 133.769 57.1821 138.91 68.2916C141.229 73.3024 142.096 79.6379 143.371 86.0603Z" fill="#8B0000" stroke="#8B0000"/>
<path id="Vector_6" d="M152.929 89.2715H1.06203C0.433536 90.2104 0.440813 90.7315 1.06203 91.6264H6.58444L18.0541 94.1953L23.5765 97.4065H131.476L136.786 93.9813L147.194 91.4123H152.929C153.547 90.5984 153.574 90.1205 152.929 89.2715Z" fill="#8B0000" stroke="#8B0000"/>
<path id="Vector_7" d="M57.1359 124.809C58.6227 129.518 56.4987 134.442 56.4987 134.442L73.9156 134.014L75.19 131.659C80.2167 127.625 83.0212 125.436 88.1465 121.811C92.4268 119.649 94.787 118.098 98.9789 115.175L110.236 108.752C114.878 105.217 117.296 103.19 121.493 99.547C122.544 98.588 122.718 98.0361 122.131 96.9781L116.608 97.1922C113.992 98.5704 112.597 99.4468 110.236 101.26C107.011 103.299 105.291 104.581 102.377 107.04C98.9704 107.757 97.1043 108.27 93.8813 109.395C87.8253 110.103 84.4736 110.592 78.5884 111.536L75.19 110.465L79.2256 110.893C84.4524 109.565 87.4421 109.179 92.8193 108.752C96.6701 107.302 98.8515 106.463 102.802 104.899C106.833 101.692 109.211 99.9572 113.635 96.9781H108.749C107.804 97.679 107.201 98.087 105.988 98.9048C103.833 101.272 102.546 102.354 100.041 103.615C97.1357 105.137 95.51 106.07 92.6069 107.896L97.2797 104.043L102.165 96.9781H96.2177C93.2798 100.498 91.5806 102.27 88.3589 104.685C88.183 103.454 88.1392 102.746 88.1465 101.474C89.3605 99.7611 89.6876 98.7763 89.8457 96.9781H84.9604V98.2626C84.1814 100.02 83.8067 101.113 83.2612 103.186C82.7897 105.063 82.3606 106.05 81.3496 107.682C77.783 108.763 75.9385 109.217 72.8536 109.823C68.0113 108.332 65.612 107.288 61.8087 105.113L52.4631 98.0485C47.8183 95.6135 45.6004 96.0913 42.6926 98.6907C48.8157 102.759 51.7409 105.296 55.2243 110.679C56.743 116.458 55.6491 120.099 57.1359 124.809Z" fill="#8B0000" stroke="#8B0000"/>
<path id="Vector_8" d="M64.1447 143.648C62.8176 144.15 62.829 143.787 64.1447 142.149C62.1651 142.679 61.6065 144.442 63.295 144.504L73.0655 138.724L64.1447 143.648Z" fill="#8B0000" stroke="#8B0000"/>
<path id="Vector_9" d="M52.8878 138.51L53.525 148.572L54.3746 144.718C60.2029 140.666 63.9025 139.207 70.9419 137.44C64.4904 138.458 60.9637 139.428 55.0118 142.578L55.8614 138.51C66.3906 136.102 72.2983 135.241 82.8364 134.443C72.3153 133.792 66.4118 133.961 55.8614 136.155C53.7378 136.584 53.0803 137.071 52.8878 138.51Z" fill="#8B0000" stroke="#8B0000"/>
<path id="Vector_10" d="M77.9512 142.363C78.655 142.363 79.2256 141.788 79.2256 141.079C79.2256 140.37 78.655 139.794 77.9512 139.794C77.2473 139.794 76.6768 140.37 76.6768 141.079C76.6768 141.788 77.2473 142.363 77.9512 142.363Z" fill="#8B0000" stroke="#8B0000"/>
<path id="Vector_11" d="M121.918 9.63354C139.183 21.1605 144.944 29.9923 145.92 51.3792C157.504 34.6118 171.62 50.0948 145.92 86.0603" stroke="#8B0000" stroke-linecap="round"/>
<path id="Vector_12" d="M55.6036 79.7817C53.8908 79.7817 52.2868 79.4255 50.7914 78.713C49.2961 78.0006 48.0863 76.8497 47.1619 75.2603C46.2648 73.671 45.8162 71.5747 45.8162 68.9715C45.8162 68.396 45.8298 67.8069 45.8569 67.2041C45.9113 66.5738 45.9929 65.9298 46.1016 65.2722C45.9113 65.2448 45.721 65.2448 45.5307 65.2722C45.3404 65.2722 45.1773 65.2722 45.0413 65.2722C44.7966 65.2722 44.6063 65.2174 44.4704 65.1078C44.3345 64.9982 44.2529 64.7652 44.2257 64.409C44.2257 64.0254 44.3073 63.6692 44.4704 63.3403C44.6607 63.0115 44.851 62.9567 45.0413 63.1759C45.3404 63.4225 45.8841 63.5732 46.6726 63.628C47.2163 61.7099 48.0319 59.9424 49.1194 58.3257C50.2341 56.709 51.4983 55.2566 52.9121 53.9687C54.353 52.6534 55.8347 51.5436 57.3572 50.6394C58.9069 49.7077 60.3886 49.0089 61.8023 48.5431C63.2161 48.0498 64.4667 47.8032 65.5542 47.8032C66.4785 47.8032 67.2126 47.995 67.7563 48.3787C68.3273 48.7623 68.6127 49.3652 68.6127 50.1872C68.6127 50.5435 68.5584 50.8997 68.4496 51.2559C68.2321 52.1876 67.8787 52.9275 67.3893 53.4755C66.9271 54.0235 66.5873 54.2976 66.3698 54.2976C66.2339 54.2976 66.1659 54.2291 66.1659 54.092C66.1659 53.955 66.2746 53.6673 66.4921 53.2289C66.8999 52.489 67.1038 51.8451 67.1038 51.297C67.1038 50.612 66.832 50.105 66.2882 49.7762C65.7445 49.42 65.024 49.2418 64.1268 49.2418C62.985 49.2418 61.6664 49.5296 60.1711 50.105C58.6758 50.6805 57.1533 51.5573 55.6036 52.7356C54.0539 53.8865 52.6266 55.3663 51.3216 57.1748C50.0438 58.956 49.0515 61.0796 48.3446 63.5458C48.8611 63.491 49.3913 63.4362 49.935 63.3814C50.4788 63.2992 50.9682 63.2033 51.4032 63.0937C54.9919 62.299 57.697 61.7373 59.5186 61.4085C61.3673 61.0522 62.5228 60.8741 62.985 60.8741C63.3928 60.8741 63.3656 60.97 62.9034 61.1618C62.4412 61.3537 61.6528 61.6277 60.5381 61.9839C59.4506 62.3127 58.1184 62.6827 56.5416 63.0937C54.9647 63.4773 53.2519 63.8747 51.4032 64.2857C50.941 64.3953 50.3972 64.5323 49.7719 64.6967C49.1738 64.8612 48.5621 65.0119 47.9368 65.1489C47.7737 66.3272 47.6921 67.437 47.6921 68.4783C47.6921 70.9445 48.0999 72.9448 48.9155 74.4794C49.7311 75.9865 50.805 77.0826 52.1372 77.7676C53.4694 78.4801 54.9103 78.8363 56.46 78.8363C58.0369 78.8363 59.6001 78.5212 61.1498 77.8909C62.7267 77.2607 64.154 76.3838 65.4318 75.2603C66.7096 74.1094 67.6748 72.7804 68.3273 71.2733C68.572 70.7526 68.7895 70.4923 68.9798 70.4923C69.1157 70.4923 69.1837 70.6019 69.1837 70.8212C69.1837 70.9582 69.1429 71.15 69.0613 71.3966C68.6535 72.6023 67.9874 73.7258 67.0631 74.7671C66.1387 75.781 65.0512 76.6578 63.8006 77.3977C62.55 78.165 61.2178 78.7541 59.8041 79.1651C58.3903 79.5762 56.9902 79.7817 55.6036 79.7817ZM70.9717 79.8228C70.8086 79.8228 70.6454 79.7269 70.4823 79.5351C70.3464 79.3433 70.2512 79.0418 70.1968 78.6308C70.1696 78.5212 70.156 78.3568 70.156 78.1376C70.156 77.9458 70.156 77.7128 70.156 77.4388C70.156 76.8908 70.156 76.3427 70.156 75.7947C70.1832 75.2192 70.1968 74.8356 70.1968 74.6438C70.1968 73.4929 70.1425 72.3283 70.0337 71.15C69.925 69.9717 69.7075 68.9852 69.3812 68.1905C69.055 67.3959 68.5384 66.9985 67.8315 66.9985C67.3965 66.9985 66.9887 67.1629 66.6081 67.4918C66.2547 67.7932 65.9556 68.1083 65.7109 68.4372C65.4391 68.766 65.2487 68.9304 65.14 68.9304C65.0312 68.9304 64.9769 68.8756 64.9769 68.766C64.9769 68.629 65.0992 68.4098 65.3439 68.1083C65.5886 67.7795 65.7653 67.5603 65.8741 67.4507C66.2819 67.0396 66.7305 66.6697 67.2198 66.3409C67.7364 66.012 68.2122 65.8476 68.6472 65.8476C69.3268 65.8476 69.857 66.2313 70.2376 66.9985C70.6182 67.7384 70.8901 68.6838 71.0532 69.8347C71.2164 70.9582 71.2979 72.0954 71.2979 73.2463C71.2979 73.8217 71.2843 74.3834 71.2571 74.9315C71.23 75.4521 71.1892 75.9317 71.1348 76.3701C71.3795 75.6851 71.6921 74.8767 72.0728 73.945C72.4534 72.9859 72.8884 72.0132 73.3777 71.0267C73.8943 70.0128 74.4381 69.0674 75.009 68.1905C75.5799 67.3137 76.1916 66.5875 76.8441 66.012C77.2248 65.6832 77.5102 65.5188 77.7005 65.5188C77.8637 65.5188 77.9452 65.601 77.9452 65.7654C77.9452 66.0395 77.7141 66.382 77.2519 66.793C76.3004 67.6425 75.4984 68.6153 74.8459 69.7114C74.1934 70.8074 73.6632 71.9309 73.2554 73.0818C72.8748 74.2327 72.5893 75.3151 72.399 76.329C72.2087 77.3429 72.0864 78.1787 72.032 78.8363C72.0048 79.0281 71.8824 79.2337 71.6649 79.4529C71.4474 79.6995 71.2164 79.8228 70.9717 79.8228ZM80.1253 77.6032C79.1466 77.6032 78.2902 77.0278 77.5561 75.8769C76.8492 74.6986 76.4958 72.8489 76.4958 70.3279C76.4958 68.6838 76.6997 67.3685 77.1075 66.382C77.5153 65.3681 78.0183 64.6282 78.6164 64.1624C79.2145 63.6966 79.7855 63.4636 80.3292 63.4636C80.873 63.4636 81.3351 63.6554 81.7158 64.0391C82.0964 64.3953 82.2867 64.916 82.2867 65.601C82.2867 66.2587 82.0964 66.9574 81.7158 67.6973C81.3351 68.4097 80.873 69.0674 80.3292 69.6703C79.8127 70.2457 79.2961 70.6293 78.7795 70.8212C78.6708 70.876 78.5349 70.9034 78.3717 70.9034C78.263 70.9034 78.2086 70.8623 78.2086 70.78C78.2086 70.5608 78.4261 70.3142 78.8611 70.0402C79.4048 69.6566 79.9214 69.0811 80.4108 68.3138C80.9001 67.5192 81.1448 66.8204 81.1448 66.2176C81.1448 65.8613 81.0633 65.5873 80.9001 65.3955C80.737 65.1763 80.5467 65.0667 80.3292 65.0667C79.9214 65.0667 79.4728 65.3955 78.9834 66.0532C78.5213 66.6834 78.1814 67.7795 77.9639 69.3414C77.9095 69.7799 77.8552 70.2046 77.8008 70.6156C77.7736 70.9993 77.76 71.3829 77.76 71.7665C77.76 73.3011 77.9911 74.5068 78.4533 75.3836C78.9155 76.2331 79.5272 76.6578 80.2884 76.6578C80.9409 76.6578 81.675 76.2742 82.4906 75.5069C83.3062 74.7123 84.1083 73.4792 84.8967 71.8076C85.087 71.3692 85.3045 71.15 85.5492 71.15C85.7123 71.15 85.7939 71.2596 85.7939 71.4788C85.7939 71.6706 85.7395 71.8761 85.6307 72.0954C84.9239 73.8491 84.0675 75.2055 83.0615 76.1646C82.0556 77.1237 81.0769 77.6032 80.1253 77.6032ZM93.0983 77.6032C92.7449 77.6032 92.4323 77.384 92.1604 76.9456C91.8885 76.4797 91.7526 75.6028 91.7526 74.3149C91.7526 73.3011 91.8341 72.1913 91.9973 70.9856C92.1604 69.7525 92.3371 68.5331 92.5274 67.3274C92.7449 66.1217 92.9352 65.053 93.0983 64.1213C93.2615 63.1622 93.343 62.4635 93.343 62.025C93.343 61.2577 93.1119 60.8741 92.6497 60.8741C92.2147 60.8741 91.7662 61.0933 91.304 61.5318C90.869 61.9702 90.4476 62.5046 90.0398 63.1348C89.6591 63.7651 89.3193 64.3816 89.0202 64.9845C88.7484 65.5599 88.5717 65.9846 88.4901 66.2587C88.1095 67.3274 87.8376 68.3961 87.6745 69.4647C87.5113 70.506 87.4298 71.5884 87.4298 72.7119C87.4298 73.1778 87.4434 73.6573 87.4706 74.1505C87.5249 74.6438 87.5657 75.1507 87.5929 75.6714C87.6473 75.9454 87.5657 76.2879 87.3482 76.6989C87.1579 77.0826 86.9268 77.2744 86.6549 77.2744C86.4646 77.2744 86.3015 77.1511 86.1656 76.9045C86.0296 76.6578 85.9345 76.4386 85.8801 76.2468C85.7714 75.918 85.6898 75.5754 85.6354 75.2192C85.581 74.8356 85.5267 74.5068 85.4723 74.2327C85.282 73.1092 85.1053 71.972 84.9421 70.8212C84.779 69.6429 84.5479 68.5057 84.2489 67.4096C84.1673 67.1081 84.0586 66.793 83.9226 66.4642C83.8139 66.108 83.6371 65.8202 83.3925 65.601C83.3381 65.5462 83.2565 65.4914 83.1478 65.4366C83.039 65.3544 82.9846 65.2859 82.9846 65.2311C82.9846 65.1215 83.1342 65.0667 83.4332 65.0667C83.7595 65.0667 84.0857 65.2311 84.412 65.5599C84.7382 65.8887 85.0373 66.3272 85.3092 66.8752C85.6354 67.5603 85.9073 68.2864 86.1248 69.0537C86.3695 69.821 86.5598 70.4375 86.6957 70.9034C86.8588 69.9169 87.0356 69.04 87.2259 68.2727C87.4162 67.6151 87.6745 66.8341 88.0007 65.9298C88.327 64.9982 88.7348 64.0939 89.2241 63.217C89.7135 62.3127 90.298 61.5729 90.9777 60.9974C91.6574 60.3946 92.4458 60.0932 93.343 60.0932C94.648 60.0932 95.3005 60.8604 95.3005 62.3949C95.3005 63.1896 95.1646 64.0665 94.8927 65.0256C94.6208 65.9572 94.3218 66.8204 93.9955 67.6151C93.6965 68.4097 93.4926 68.9578 93.3838 69.2592C93.2479 69.6429 93.0983 70.1635 92.9352 70.8212C92.7993 71.4788 92.6769 72.1639 92.5682 72.8763C92.4866 73.5888 92.4458 74.2464 92.4458 74.8493C92.4458 75.3699 92.5002 75.8084 92.609 76.1646C92.7449 76.4934 92.9488 76.6578 93.2207 76.6578C93.4926 76.6578 93.7372 76.5345 93.9547 76.2879C94.1722 76.0139 94.349 75.7673 94.4849 75.548C94.648 75.3288 94.7296 75.2877 94.7296 75.4247C94.784 75.8358 94.6344 76.3016 94.281 76.8223C93.9547 77.3429 93.5605 77.6032 93.0983 77.6032ZM99.5422 83.6454C99.2703 83.6454 98.9848 83.4673 98.6858 83.1111C98.4139 82.7823 98.1556 82.3164 97.9109 81.7136C97.5031 80.7271 97.2176 79.6858 97.0545 78.5897C96.8914 77.521 96.8098 76.4386 96.8098 75.3425C96.8098 74.1368 96.8914 72.9585 97.0545 71.8076C97.2176 70.6567 97.3944 69.6155 97.5847 68.6838C97.7206 68.0261 97.8837 67.3274 98.074 66.5875C98.2644 65.8476 98.4411 65.2585 98.6042 64.82C98.4411 64.8475 98.1828 64.9434 97.8294 65.1078C97.4759 65.2722 97.1089 65.4366 96.7283 65.601C96.3748 65.7654 96.0622 65.8476 95.7903 65.8476C95.3825 65.8476 95.1786 65.6147 95.1786 65.1489C95.1786 64.9023 95.2602 64.683 95.4233 64.4912C95.6136 64.2994 95.8447 64.1487 96.1166 64.0391C96.6603 63.7925 97.2584 63.6144 97.9109 63.5047C98.5634 63.3677 98.9984 63.2307 99.2159 63.0937L100.276 60.3809C100.385 60.1069 100.575 59.6684 100.847 59.0656C101.146 58.4353 101.486 57.764 101.867 57.0515C102.274 56.339 102.669 55.6951 103.049 55.1196C103.348 54.6812 103.634 54.3387 103.906 54.092C104.178 53.818 104.477 53.681 104.803 53.681C105.292 53.681 105.537 53.8728 105.537 54.2565C105.537 54.4757 105.442 54.8045 105.252 55.2429C105.088 55.6814 104.776 56.2568 104.314 56.9693C103.797 57.7914 103.267 58.6134 102.723 59.4355C102.207 60.2302 101.758 61.0659 101.377 61.9428C101.35 62.0524 101.282 62.2305 101.173 62.4772C101.092 62.6964 101.024 62.8334 100.969 62.8882L101.785 62.7649C102.003 62.7375 102.247 62.7238 102.519 62.7238C102.791 62.6964 103.09 62.6827 103.416 62.6827C103.879 62.6827 104.314 62.7101 104.721 62.7649C105.156 62.7923 105.51 62.8608 105.782 62.9704C105.918 63.0252 106.04 63.0937 106.149 63.1759C106.285 63.2307 106.353 63.2855 106.353 63.3403C106.353 63.4499 105.999 63.5047 105.292 63.5047C104.884 63.5047 104.3 63.5732 103.539 63.7103C102.805 63.8473 101.962 64.0665 101.01 64.3679C100.548 64.5049 100.235 64.6967 100.072 64.9434C99.9092 65.19 99.6917 65.7791 99.4198 66.7108C99.012 68.1905 98.6858 69.6155 98.4411 70.9856C98.1964 72.3283 98.0061 73.6984 97.8701 75.0959C97.843 75.3699 97.8158 75.6577 97.7886 75.9591C97.7886 76.2605 97.7886 76.5893 97.7886 76.9456C97.7886 77.8772 97.8701 78.85 98.0333 79.8639C98.2236 80.8778 98.4954 81.7547 98.8489 82.4945C98.9304 82.6589 99.012 82.8097 99.0936 82.9467C99.2023 83.0837 99.3247 83.1796 99.4606 83.2344C99.6509 83.3166 99.7461 83.4125 99.7461 83.5221C99.7461 83.6043 99.6781 83.6454 99.5422 83.6454Z" fill="#8B0000"/>
</g>
<defs>
<clipPath id="clip0_623_5929">
<rect width="161" height="149" fill="white"/>
</clipPath>
</defs>
</svg>
