<svg width="189" height="174" viewBox="0 0 189 174" fill="none" xmlns="http://www.w3.org/2000/svg">
<g clip-path="url(#clip0_580_485)">
<path d="M171.297 103C179.204 98.792 182.997 95.264 188.751 87" stroke="#8B0000" stroke-linecap="round"/>
<path d="M131.402 13.2504C131.378 13.225 131.353 13.1996 131.329 13.1743C131.433 13.3643 131.54 13.5564 131.652 13.7504L131.402 13.2504Z" fill="#8B0000"/>
<path d="M110.956 2.25091C120.051 4.05573 124.64 6.21354 131.402 13.2509L131.652 13.7509C118.144 -9.77736 161.822 -3.74976 172.544 41.7509" stroke="#8B0000" stroke-linecap="round"/>
<path d="M89.0145 40.0001C89.0145 40.6905 89.5725 41.2501 90.2612 41.2501C90.9499 41.2501 91.5079 40.6905 91.5079 40.0001H89.0145ZM83.6123 31.5001C83.6123 35.182 86.5889 38.1668 90.2612 38.1668C93.9335 38.1668 96.9101 35.182 96.9101 31.5001C96.9101 27.8182 93.9335 24.8335 90.2612 24.8335C86.5889 24.8335 83.6123 27.8182 83.6123 31.5001ZM91.5079 40.0001V31.5001H89.0145V40.0001H91.5079Z" fill="#8B0000"/>
<path d="M168.305 100.5H155.838C154.342 84.5 149.51 73.6965 139.631 64.5C110.694 37.5622 66.8452 36.5314 32.1649 63C61.9018 37.2434 107.297 31.9415 137.636 51.5C148.16 58.2845 157.033 66.7765 163.069 79.75C165.791 85.6015 166.809 93 168.305 100.5Z" fill="#8B0000" stroke="#8B0000"/>
<path d="M179.525 104.25H1.24668C0.508886 105.347 0.517429 105.955 1.24668 107H7.72951L21.1939 110L27.6767 113.75H154.342L160.575 109.75L172.793 106.75H179.525C180.251 105.799 180.282 105.242 179.525 104.25Z" fill="#8B0000" stroke="#8B0000"/>
<path d="M67.0726 145.749C68.818 151.249 66.3246 156.999 66.3246 156.999L86.7705 156.499L88.2665 153.749C94.1674 149.038 97.4597 146.482 103.476 142.249C108.501 139.724 111.272 137.913 116.193 134.499L129.408 126.999C134.857 122.87 137.696 120.503 142.623 116.249C143.855 115.129 144.06 114.485 143.371 113.249L136.888 113.499C133.817 115.109 132.179 116.132 129.408 118.249C125.622 120.631 123.603 122.128 120.182 124.999C116.183 125.837 113.992 126.436 110.208 127.749C103.099 128.576 99.1647 129.147 92.256 130.249L88.2665 128.999L93.004 129.499C99.1397 127.948 102.649 127.497 108.962 126.999C113.482 125.305 116.043 124.325 120.681 122.499C125.413 118.754 128.204 116.728 133.397 113.249H127.662C126.552 114.068 125.845 114.544 124.421 115.499C121.891 118.264 120.38 119.528 117.439 120.999C114.029 122.777 112.12 123.867 108.712 125.999L114.198 121.499L119.933 113.249H112.951C109.502 117.359 107.508 119.429 103.726 122.249C103.519 120.812 103.468 119.985 103.476 118.499C104.902 116.499 105.285 115.349 105.471 113.249H99.7362V114.749C98.8216 116.802 98.3817 118.078 97.7414 120.499C97.1879 122.691 96.6842 123.843 95.4974 125.749C91.3105 127.012 89.1452 127.542 85.5238 128.249C79.8393 126.508 77.0228 125.289 72.5581 122.749L61.5871 114.499C56.1345 111.656 53.5309 112.214 50.1174 115.249C57.3054 120 60.7393 122.962 64.8285 129.249C66.6113 135.998 65.3272 140.25 67.0726 145.749Z" fill="#8B0000" stroke="#8B0000"/>
<path d="M75.3003 167.75C73.7424 168.336 73.7559 167.912 75.3003 166C72.9765 166.619 72.3207 168.677 74.303 168.75L85.7726 162L75.3003 167.75Z" fill="#8B0000" stroke="#8B0000"/>
<path d="M62.0858 161.75L62.8338 173.5L63.8311 169C70.673 164.268 75.016 162.564 83.2797 160.5C75.7062 161.69 71.5662 162.822 64.5792 166.5L65.5765 161.75C77.9368 158.938 84.872 157.932 97.2427 157C84.8919 156.24 77.9618 156.438 65.5765 159C63.0836 159.501 62.3117 160.07 62.0858 161.75Z" fill="#8B0000" stroke="#8B0000"/>
<path d="M91.5079 166.25C92.3342 166.25 93.004 165.578 93.004 164.75C93.004 163.922 92.3342 163.25 91.5079 163.25C90.6817 163.25 90.0119 163.922 90.0119 164.75C90.0119 165.578 90.6817 166.25 91.5079 166.25Z" fill="#8B0000" stroke="#8B0000"/>
<path d="M143.121 11.25C163.389 24.7111 170.152 35.0247 171.297 60C184.896 40.4192 201.467 58.5 171.297 100.5" stroke="#8B0000" stroke-linecap="round"/>
<path d="M65.2738 93.1682C63.2632 93.1682 61.3801 92.7522 59.6248 91.9202C57.8694 91.0882 56.4492 89.7442 55.3641 87.8882C54.3108 86.0322 53.7842 83.5842 53.7842 80.5442C53.7842 79.8722 53.8002 79.1842 53.8321 78.4802C53.8959 77.7442 53.9917 76.9922 54.1193 76.2242C53.8959 76.1922 53.6725 76.1922 53.4491 76.2242C53.2257 76.2242 53.0342 76.2242 52.8746 76.2242C52.5874 76.2242 52.364 76.1602 52.2044 76.0322C52.0448 75.9042 51.9491 75.6322 51.9172 75.2162C51.9172 74.7682 52.0129 74.3522 52.2044 73.9682C52.4278 73.5842 52.6512 73.5202 52.8746 73.7762C53.2257 74.0642 53.864 74.2402 54.7896 74.3042C55.4279 72.0642 56.3854 70.0002 57.662 68.1122C58.9705 66.2242 60.4546 64.5282 62.1142 63.0242C63.8057 61.4882 65.5451 60.1922 67.3324 59.1362C69.1516 58.0482 70.891 57.2322 72.5506 56.6882C74.2102 56.1122 75.6783 55.8242 76.9549 55.8242C78.0401 55.8242 78.9018 56.0482 79.5401 56.4962C80.2103 56.9442 80.5454 57.6482 80.5454 58.6082C80.5454 59.0242 80.4816 59.4402 80.3539 59.8562C80.0986 60.9442 79.6837 61.8082 79.1092 62.4482C78.5667 63.0882 78.1677 63.4082 77.9124 63.4082C77.7528 63.4082 77.673 63.3282 77.673 63.1682C77.673 63.0082 77.8007 62.6722 78.056 62.1602C78.5348 61.2962 78.7741 60.5442 78.7741 59.9042C78.7741 59.1042 78.455 58.5122 77.8167 58.1282C77.1783 57.7122 76.3326 57.5042 75.2794 57.5042C73.9389 57.5042 72.391 57.8402 70.6357 58.5122C68.8803 59.1842 67.093 60.2082 65.2738 61.5842C63.4547 62.9282 61.7791 64.6562 60.2471 66.7682C58.7471 68.8482 57.5822 71.3282 56.7524 74.2082C57.3588 74.1442 57.9811 74.0802 58.6194 74.0162C59.2578 73.9202 59.8322 73.8082 60.3429 73.6802C64.5557 72.7522 67.7313 72.0962 69.8697 71.7122C72.0399 71.2962 73.3964 71.0882 73.9389 71.0882C74.4176 71.0882 74.3857 71.2002 73.8432 71.4242C73.3006 71.6482 72.3751 71.9682 71.0665 72.3842C69.7899 72.7682 68.226 73.2002 66.3749 73.6802C64.5238 74.1282 62.5131 74.5922 60.3429 75.0722C59.8003 75.2002 59.162 75.3602 58.428 75.5522C57.7258 75.7442 57.0077 75.9202 56.2737 76.0802C56.0822 77.4562 55.9864 78.7522 55.9864 79.9682C55.9864 82.8482 56.4651 85.1842 57.4226 86.9762C58.3801 88.7362 59.6407 90.0162 61.2046 90.8162C62.7685 91.6482 64.46 92.0642 66.2792 92.0642C68.1303 92.0642 69.9654 91.6962 71.7846 90.9602C73.6357 90.2242 75.3113 89.2002 76.8113 87.8882C78.3114 86.5442 79.4444 84.9922 80.2103 83.2322C80.4976 82.6242 80.7529 82.3202 80.9763 82.3202C81.1359 82.3202 81.2157 82.4482 81.2157 82.7042C81.2157 82.8642 81.1678 83.0882 81.072 83.3762C80.5933 84.7842 79.8114 86.0962 78.7263 87.3122C77.6411 88.4962 76.3645 89.5202 74.8964 90.3842C73.4283 91.2802 71.8644 91.9682 70.2048 92.4482C68.5452 92.9282 66.9015 93.1682 65.2738 93.1682ZM83.3146 93.2162C83.1231 93.2162 82.9316 93.1042 82.7401 92.8802C82.5806 92.6562 82.4689 92.3042 82.405 91.8242C82.3731 91.6962 82.3571 91.5042 82.3571 91.2482C82.3571 91.0242 82.3571 90.7522 82.3571 90.4322C82.3571 89.7922 82.3571 89.1522 82.3571 88.5122C82.3891 87.8402 82.405 87.3922 82.405 87.1682C82.405 85.8242 82.3412 84.4642 82.2135 83.0882C82.0859 81.7122 81.8305 80.5602 81.4476 79.6322C81.0646 78.7042 80.4582 78.2402 79.6284 78.2402C79.1177 78.2402 78.639 78.4322 78.1922 78.8162C77.7773 79.1682 77.4262 79.5362 77.139 79.9202C76.8198 80.3042 76.5964 80.4962 76.4687 80.4962C76.3411 80.4962 76.2772 80.4322 76.2772 80.3042C76.2772 80.1442 76.4209 79.8882 76.7081 79.5362C76.9953 79.1522 77.2028 78.8962 77.3304 78.7682C77.8092 78.2882 78.3358 77.8562 78.9103 77.4722C79.5167 77.0882 80.0752 76.8962 80.5858 76.8962C81.3837 76.8962 82.0061 77.3442 82.4529 78.2402C82.8997 79.1042 83.2189 80.2082 83.4104 81.5522C83.6019 82.8642 83.6976 84.1922 83.6976 85.5362C83.6976 86.2082 83.6816 86.8642 83.6497 87.5042C83.6178 88.1122 83.5699 88.6722 83.5061 89.1842C83.7933 88.3842 84.1604 87.4402 84.6072 86.3522C85.054 85.2322 85.5647 84.0962 86.1391 82.9442C86.7455 81.7602 87.3839 80.6562 88.0541 79.6322C88.7243 78.6082 89.4424 77.7602 90.2084 77.0882C90.6552 76.7042 90.9903 76.5122 91.2137 76.5122C91.4052 76.5122 91.501 76.6082 91.501 76.8002C91.501 77.1202 91.2297 77.5202 90.6871 78.0002C89.5701 78.9922 88.6286 80.1282 87.8626 81.4082C87.0966 82.6882 86.4743 84.0002 85.9955 85.3442C85.5487 86.6882 85.2136 87.9522 84.9902 89.1362C84.7668 90.3202 84.6231 91.2962 84.5593 92.0642C84.5274 92.2882 84.3838 92.5282 84.1285 92.7842C83.8731 93.0722 83.6019 93.2162 83.3146 93.2162ZM94.0602 90.6242C92.9112 90.6242 91.9059 89.9522 91.0442 88.6082C90.2144 87.2322 89.7995 85.0722 89.7995 82.1282C89.7995 80.2082 90.0388 78.6722 90.5176 77.5202C90.9963 76.3362 91.5867 75.4722 92.2889 74.9282C92.991 74.3842 93.6612 74.1122 94.2996 74.1122C94.9379 74.1122 95.4804 74.3362 95.9272 74.7842C96.3741 75.2002 96.5975 75.8082 96.5975 76.6082C96.5975 77.3762 96.3741 78.1922 95.9272 79.0562C95.4804 79.8882 94.9379 80.6562 94.2996 81.3602C93.6932 82.0322 93.0868 82.4802 92.4804 82.7042C92.3527 82.7682 92.1931 82.8002 92.0016 82.8002C91.874 82.8002 91.8101 82.7522 91.8101 82.6562C91.8101 82.4002 92.0655 82.1122 92.5761 81.7922C93.2144 81.3442 93.8208 80.6722 94.3953 79.7762C94.9698 78.8482 95.257 78.0322 95.257 77.3282C95.257 76.9122 95.1613 76.5922 94.9698 76.3682C94.7783 76.1122 94.5549 75.9842 94.2996 75.9842C93.8208 75.9842 93.2942 76.3682 92.7197 77.1362C92.1772 77.8722 91.7782 79.1522 91.5229 80.9762C91.4591 81.4882 91.3952 81.9842 91.3314 82.4642C91.2995 82.9122 91.2835 83.3602 91.2835 83.8082C91.2835 85.6002 91.5548 87.0082 92.0974 88.0322C92.6399 89.0242 93.358 89.5202 94.2517 89.5202C95.0177 89.5202 95.8794 89.0722 96.8368 88.1762C97.7943 87.2482 98.7358 85.8082 99.6614 83.8562C99.8848 83.3442 100.14 83.0882 100.427 83.0882C100.619 83.0882 100.715 83.2162 100.715 83.4722C100.715 83.6962 100.651 83.9362 100.523 84.1922C99.6933 86.2402 98.6879 87.8242 97.5071 88.9442C96.3262 90.0642 95.1772 90.6242 94.0602 90.6242ZM109.289 90.6242C108.874 90.6242 108.507 90.3682 108.188 89.8562C107.869 89.3122 107.71 88.2882 107.71 86.7842C107.71 85.6002 107.805 84.3042 107.997 82.8962C108.188 81.4562 108.396 80.0322 108.619 78.6242C108.874 77.2162 109.098 75.9682 109.289 74.8802C109.481 73.7602 109.577 72.9442 109.577 72.4322C109.577 71.5362 109.305 71.0882 108.763 71.0882C108.252 71.0882 107.726 71.3442 107.183 71.8562C106.672 72.3682 106.178 72.9922 105.699 73.7282C105.252 74.4642 104.853 75.1842 104.502 75.8882C104.183 76.5602 103.975 77.0562 103.88 77.3762C103.433 78.6242 103.114 79.8722 102.922 81.1202C102.731 82.3362 102.635 83.6002 102.635 84.9122C102.635 85.4562 102.651 86.0162 102.683 86.5922C102.747 87.1682 102.795 87.7602 102.826 88.3682C102.89 88.6882 102.795 89.0882 102.539 89.5682C102.316 90.0162 102.045 90.2402 101.725 90.2402C101.502 90.2402 101.311 90.0962 101.151 89.8082C100.991 89.5202 100.88 89.2642 100.816 89.0402C100.688 88.6562 100.592 88.2562 100.529 87.8402C100.465 87.3922 100.401 87.0082 100.337 86.6882C100.114 85.3762 99.9062 84.0482 99.7147 82.7042C99.5232 81.3282 99.2519 80.0002 98.9009 78.7202C98.8051 78.3682 98.6775 78.0002 98.5179 77.6162C98.3902 77.2002 98.1828 76.8642 97.8955 76.6082C97.8317 76.5442 97.736 76.4802 97.6083 76.4162C97.4806 76.3202 97.4168 76.2402 97.4168 76.1762C97.4168 76.0482 97.5923 75.9842 97.9434 75.9842C98.3264 75.9842 98.7094 76.1762 99.0924 76.5602C99.4754 76.9442 99.8264 77.4562 100.146 78.0962C100.529 78.8962 100.848 79.7442 101.103 80.6402C101.39 81.5362 101.614 82.2562 101.773 82.8002C101.965 81.6482 102.172 80.6242 102.396 79.7282C102.619 78.9602 102.922 78.0482 103.305 76.9922C103.688 75.9042 104.167 74.8482 104.741 73.8242C105.316 72.7682 106.002 71.9042 106.8 71.2322C107.598 70.5282 108.523 70.1762 109.577 70.1762C111.109 70.1762 111.875 71.0722 111.875 72.8642C111.875 73.7922 111.715 74.8162 111.396 75.9362C111.077 77.0242 110.726 78.0322 110.343 78.9602C109.992 79.8882 109.752 80.5282 109.625 80.8802C109.465 81.3282 109.289 81.9362 109.098 82.7042C108.938 83.4722 108.795 84.2722 108.667 85.1042C108.571 85.9362 108.523 86.7042 108.523 87.4082C108.523 88.0162 108.587 88.5282 108.715 88.9442C108.874 89.3282 109.114 89.5202 109.433 89.5202C109.752 89.5202 110.039 89.3762 110.295 89.0882C110.55 88.7682 110.758 88.4802 110.917 88.2242C111.109 87.9682 111.204 87.9202 111.204 88.0802C111.268 88.5602 111.093 89.1042 110.678 89.7122C110.295 90.3202 109.832 90.6242 109.289 90.6242ZM116.854 97.6802C116.535 97.6802 116.2 97.4722 115.849 97.0562C115.529 96.6722 115.226 96.1282 114.939 95.4242C114.46 94.2722 114.125 93.0562 113.934 91.7762C113.742 90.5282 113.646 89.2642 113.646 87.9842C113.646 86.5762 113.742 85.2002 113.934 83.8562C114.125 82.5122 114.333 81.2962 114.556 80.2082C114.716 79.4402 114.907 78.6242 115.13 77.7602C115.354 76.8962 115.561 76.2082 115.753 75.6962C115.561 75.7282 115.258 75.8402 114.843 76.0322C114.428 76.2242 113.997 76.4162 113.551 76.6082C113.136 76.8002 112.769 76.8962 112.45 76.8962C111.971 76.8962 111.731 76.6242 111.731 76.0802C111.731 75.7922 111.827 75.5362 112.019 75.3122C112.242 75.0882 112.513 74.9122 112.833 74.7842C113.471 74.4962 114.173 74.2882 114.939 74.1602C115.705 74.0002 116.216 73.8402 116.471 73.6802L117.716 70.5122C117.843 70.1922 118.067 69.6802 118.386 68.9762C118.737 68.2402 119.136 67.4562 119.583 66.6242C120.061 65.7922 120.524 65.0402 120.971 64.3682C121.322 63.8562 121.657 63.4562 121.976 63.1682C122.295 62.8482 122.647 62.6882 123.03 62.6882C123.604 62.6882 123.891 62.9122 123.891 63.3602C123.891 63.6162 123.78 64.0002 123.556 64.5122C123.365 65.0242 122.998 65.6962 122.455 66.5282C121.849 67.4882 121.226 68.4482 120.588 69.4082C119.982 70.3362 119.455 71.3122 119.008 72.3362C118.976 72.4642 118.896 72.6722 118.769 72.9602C118.673 73.2162 118.593 73.3762 118.529 73.4402L119.487 73.2962C119.742 73.2642 120.029 73.2482 120.349 73.2482C120.668 73.2162 121.019 73.2002 121.402 73.2002C121.944 73.2002 122.455 73.2322 122.934 73.2962C123.444 73.3282 123.859 73.4082 124.179 73.5362C124.338 73.6002 124.482 73.6802 124.609 73.7762C124.769 73.8402 124.849 73.9042 124.849 73.9682C124.849 74.0962 124.434 74.1602 123.604 74.1602C123.125 74.1602 122.439 74.2402 121.545 74.4002C120.684 74.5602 119.694 74.8162 118.577 75.1682C118.035 75.3282 117.668 75.5522 117.476 75.8402C117.285 76.1282 117.029 76.8162 116.71 77.9042C116.232 79.6322 115.849 81.2962 115.561 82.8962C115.274 84.4642 115.051 86.0642 114.891 87.6962C114.859 88.0162 114.827 88.3522 114.795 88.7042C114.795 89.0562 114.795 89.4402 114.795 89.8562C114.795 90.9442 114.891 92.0802 115.083 93.2642C115.306 94.4482 115.625 95.4722 116.04 96.3362C116.136 96.5282 116.232 96.7042 116.327 96.8642C116.455 97.0242 116.599 97.1362 116.758 97.2002C116.982 97.2962 117.093 97.4082 117.093 97.5362C117.093 97.6322 117.013 97.6802 116.854 97.6802Z" fill="#8B0000"/>
</g>
<defs>
<clipPath id="clip0_580_485">
<rect width="189" height="174" fill="white"/>
</clipPath>
</defs>
</svg>
