<svg width="24" height="24" viewBox="0 0 24 24" fill="none" xmlns="http://www.w3.org/2000/svg">
<path fill-rule="evenodd" clip-rule="evenodd" d="M20.4 13.1427H16.8C14.8116 13.1427 13.2 14.6776 13.2 16.5713V19.9999C13.2 21.8936 14.8116 23.4284 16.8 23.4284H20.4C22.3884 23.4284 24 21.8936 24 19.9999V16.5713C24 14.6776 22.3884 13.1427 20.4 13.1427ZM7.2 13.1427H3.6C1.6116 13.1427 0 14.6776 0 16.5713V19.9999C0 21.8936 1.6116 23.4284 3.6 23.4284H7.2C9.1884 23.4284 10.8 21.8936 10.8 19.9999V16.5713C10.8 14.6776 9.1884 13.1427 7.2 13.1427ZM20.4 0.571289H16.8C14.8116 0.571289 13.2 2.10615 13.2 3.99986V7.42843C13.2 9.32215 14.8116 10.857 16.8 10.857H20.4C22.3884 10.857 24 9.32215 24 7.42843V3.99986C24 2.10615 22.3884 0.571289 20.4 0.571289ZM10.8 3.99986V7.42843C10.8 9.32215 9.1884 10.857 7.2 10.857H3.6C1.6116 10.857 0 9.32215 0 7.42843V3.99986C0 2.10615 1.6116 0.571289 3.6 0.571289H7.2C9.1884 0.571289 10.8 2.10615 10.8 3.99986Z" fill="#8B0000"/>
</svg>
