<svg width="17" height="17" viewBox="0 0 17 17" fill="none" xmlns="http://www.w3.org/2000/svg">
<path fill-rule="evenodd" clip-rule="evenodd" d="M15.2193 4.9835C15.7819 4.47348 16.1371 3.72467 16.1371 2.89003C16.1371 1.35324 14.9328 0.107422 13.4472 0.107422C12.0081 0.107422 10.8329 1.27659 10.7609 2.74684C10.7585 2.79427 10.7574 2.84201 10.7574 2.89003C10.7574 2.89008 10.7574 2.89013 10.7574 2.89018C10.7574 4.42697 11.9616 5.67279 13.4472 5.67279C14.126 5.67279 14.746 5.41271 15.2193 4.98363C15.2193 4.98359 15.2193 4.98354 15.2193 4.9835ZM8.06751 0.803125C8.55192 0.803125 9.19881 0.840447 9.90121 0.897034C9.58953 1.48925 9.41244 2.16822 9.41244 2.88998C9.41244 5.19517 11.2189 7.06389 13.4472 7.06389C14.1377 7.06389 14.7876 6.88449 15.3558 6.56831C15.4205 7.40724 15.4646 8.1747 15.4646 8.70645C15.4646 9.82111 15.2706 11.8134 15.1003 13.348C14.9613 14.6006 13.9794 15.5867 12.7274 15.7303C11.1902 15.9065 9.19147 16.1075 8.06751 16.1075C6.94355 16.1075 4.94486 15.9065 3.40763 15.7303C2.1556 15.5867 1.17372 14.6006 1.0347 13.348C0.864381 11.8134 0.67041 9.82111 0.67041 8.70645C0.67041 7.55199 0.878477 5.28654 1.05285 3.5907C1.18303 2.32461 2.16949 1.32206 3.434 1.17732C4.96765 1.00177 6.94997 0.803125 8.06751 0.803125Z" fill="white"/>
</svg>
