<svg width="21" height="17" viewBox="0 0 21 17" fill="none" xmlns="http://www.w3.org/2000/svg">
<path fill-rule="evenodd" clip-rule="evenodd" d="M3.67041 7.16553C3.67041 5.30901 4.40791 3.52853 5.72066 2.21578C7.03342 0.903025 8.81389 0.165527 10.6704 0.165527C12.5269 0.165527 14.3074 0.903025 15.6202 2.21578C16.9329 3.52853 17.6704 5.30901 17.6704 7.16553V9.20053C19.3664 9.44353 20.6704 10.9025 20.6704 12.6655V12.9155C20.6704 13.3423 20.5863 13.7649 20.423 14.1592C20.2597 14.5536 20.0203 14.9118 19.7185 15.2136C19.4167 15.5154 19.0584 15.7548 18.6641 15.9181C18.2698 16.0815 17.8472 16.1655 17.4204 16.1655C16.9563 16.1655 16.5112 15.9812 16.183 15.653C15.8548 15.3248 15.6704 14.8797 15.6704 14.4155V7.16553C15.6704 5.83945 15.1436 4.56768 14.2059 3.62999C13.2683 2.69231 11.9965 2.16553 10.6704 2.16553C9.34433 2.16553 8.07256 2.69231 7.13488 3.62999C6.19719 4.56768 5.67041 5.83945 5.67041 7.16553V14.4155C5.67041 14.8797 5.48604 15.3248 5.15785 15.653C4.82966 15.9812 4.38454 16.1655 3.92041 16.1655C3.05846 16.1655 2.23181 15.8231 1.62231 15.2136C1.01282 14.6041 0.67041 13.7775 0.67041 12.9155V12.6655C0.670194 11.8237 0.97337 11.0101 1.52436 10.3737C2.07536 9.73728 2.83726 9.32078 3.67041 9.20053V7.16553Z" fill="white"/>
</svg>
