<svg width="318" height="322" viewBox="0 0 318 322" fill="none" xmlns="http://www.w3.org/2000/svg">
<g opacity="0.9">
<path opacity="0.56" d="M34.4879 198.647C34.4086 127.265 116.601 81.9431 184.527 101.054C233.906 114.877 256.892 154.156 262.44 164.505C277.737 193.058 295.412 252.883 260.379 282.04C238.186 300.471 201.885 305.154 176.284 290.274C165.505 284.004 157.579 274.638 154.17 263.005C152.11 256.055 152.585 247.671 144.263 244.498C140.458 243.063 136.099 243.063 132.057 243.97C113.589 248.275 101.78 269.652 81.3306 267.462C69.2038 266.177 60.8815 256.055 53.5896 247.746C41.5421 233.923 34.4879 216.701 34.4879 198.647Z" fill="#E80101" fill-opacity="0.4"/>
<path d="M35.0087 232.348C39.7573 211.77 75.1956 220.12 98.5867 186.122C110.018 169.52 118.636 142.68 112.744 118.423C103.071 78.5598 61.3897 75.2792 61.5655 50.6254C61.7414 25.574 103.863 -7.1321 137.103 1.41721C175.619 11.2589 179.224 70.3087 218.268 75.478C241.835 78.6592 253.618 58.8765 268.04 66.9287C289.057 78.6592 288.529 128.464 283.253 157.989C273.932 210.378 241.835 242.289 230.403 253.323C221.082 262.37 155.57 323.706 90.9363 297.76C59.8068 285.234 30.1722 252.826 35.0087 232.348Z" fill="#D60303" fill-opacity="0.31"/>
<path d="M37.7918 158.384C37.7918 157.899 37.6984 157.705 37.6984 157.026C37.5116 155.667 37.4181 154.794 36.5775 153.533C35.27 151.399 33.4954 150.04 31.1605 149.264C31.1605 149.264 31.1604 149.264 31.067 149.264C30.8802 149.167 30.6 149.07 30.4132 148.973C28.9188 148.585 27.4245 148.585 26.0235 148.973C24.6225 149.458 23.3149 150.137 22.1941 151.205C21.9139 151.496 21.7271 151.884 21.447 152.175C21.1668 152.466 20.8865 152.854 20.6997 153.145C20.3261 153.727 19.9525 154.794 19.7657 155.473C19.4855 156.249 19.4856 157.22 19.4856 158.093C19.4856 159.839 19.7657 160.518 20.3261 161.973C20.7931 163.235 20.7931 163.138 21.5403 164.108C22.2875 165.175 22.1942 165.078 23.2216 165.854C23.5952 166.145 23.8753 166.436 24.2489 166.727C25.5565 167.6 27.1442 167.891 28.6386 167.988C30.2264 168.085 32.001 167.406 33.3086 166.63C34.1492 166.145 34.6162 165.757 35.1766 165.078C35.6436 164.593 36.2039 163.817 36.5775 163.138C37.2313 161.973 37.5115 160.809 37.6049 159.645C37.6983 159.257 37.7918 158.772 37.7918 158.384Z" fill="#FF0000"/>
<path d="M9.15303 120.844C8.96623 120.262 8.68602 119.68 8.31242 119.195C8.21902 119.001 8.03222 118.807 7.84542 118.613C7.65863 118.419 7.56523 118.322 7.37843 118.225C7.09823 117.934 6.72466 117.74 6.35106 117.643C5.97747 117.449 5.60392 117.352 5.23032 117.352C4.66993 117.255 4.01611 117.255 3.45572 117.449C3.08212 117.546 2.70857 117.74 2.33497 117.934C2.14818 118.031 1.49438 118.516 1.40098 118.71C1.30759 118.807 0.747146 119.583 0.653747 119.68C0.560348 119.874 0.186752 120.65 0.186752 120.844C0.0933534 121.232 0.093399 121.718 0 122.106C0.093399 122.494 0.0933534 122.979 0.186752 123.367C0.37355 123.949 0.65377 124.531 1.02737 125.016C1.21416 125.404 1.49438 125.695 1.86798 125.889C2.14818 126.18 2.52175 126.374 2.89535 126.471C3.26894 126.665 3.64247 126.762 4.10946 126.762C4.48306 126.859 4.9501 126.859 5.3237 126.762C5.97749 126.762 6.53793 126.568 7.00492 126.18C7.28512 125.889 7.65872 125.695 7.93891 125.404C8.21911 125.113 8.40584 124.725 8.68604 124.434C8.87284 124.046 8.96623 123.658 9.15303 123.27C9.24643 122.882 9.2465 122.397 9.3399 122.009C9.2465 121.718 9.15303 121.232 9.15303 120.844Z" fill="#FF0000"/>
<path d="M146.215 317.947C153.436 317.947 159.291 311.866 159.291 304.365C159.291 296.863 153.436 290.782 146.215 290.782C138.993 290.782 133.139 296.863 133.139 304.365C133.139 311.866 138.993 317.947 146.215 317.947Z" fill="#8B0000"/>
<path d="M124.259 321.334C126.838 321.334 128.929 319.162 128.929 316.483C128.929 313.804 126.838 311.632 124.259 311.632C121.68 311.632 119.589 313.804 119.589 316.483C119.589 319.162 121.68 321.334 124.259 321.334Z" fill="#8B0000"/>
<path d="M288.322 38.1867C295.028 38.1867 300.464 32.5401 300.464 25.5746C300.464 18.6091 295.028 12.9624 288.322 12.9624C281.616 12.9624 276.18 18.6091 276.18 25.5746C276.18 32.5401 281.616 38.1867 288.322 38.1867Z" stroke="#FF0000" stroke-width="3.88168" stroke-miterlimit="10"/>
<path d="M300.278 46.7236L302.707 43.522L305.135 40.4175L306.536 44.2011L307.937 47.9848L304.108 47.3057L300.278 46.7236Z" stroke="#8B0000" stroke-width="1.46415" stroke-miterlimit="10"/>
<path d="M308.684 7.91692L311.112 4.71537L313.541 1.61084L314.942 5.39448L316.343 9.17813L312.513 8.49902L308.684 7.91692Z" stroke="#8B0000" stroke-width="1.46415" stroke-miterlimit="10"/>
</g>
</svg>
