<svg width="22" height="21" viewBox="0 0 22 21" fill="none" xmlns="http://www.w3.org/2000/svg">
<path d="M21.4527 19.5311C19.906 16.8569 17.5223 14.9394 14.7405 14.0305C16.1165 13.2113 17.1856 11.9631 17.7835 10.4776C18.3815 8.99206 18.4753 7.3513 18.0505 5.8073C17.6257 4.26331 16.7058 2.90144 15.4321 1.93083C14.1584 0.960234 12.6013 0.43457 10.9999 0.43457C9.39857 0.43457 7.84148 0.960234 6.56778 1.93083C5.29408 2.90144 4.3742 4.26331 3.94941 5.8073C3.52462 7.3513 3.6184 8.99206 4.21636 10.4776C4.81432 11.9631 5.88339 13.2113 7.25939 14.0305C4.4776 14.9384 2.09392 16.8559 0.547127 19.5311C0.490403 19.6236 0.452779 19.7265 0.436473 19.8338C0.420168 19.941 0.425512 20.0505 0.45219 20.1556C0.478869 20.2608 0.526341 20.3596 0.591806 20.4461C0.657271 20.5326 0.739403 20.6052 0.833355 20.6594C0.927308 20.7137 1.03118 20.7486 1.13884 20.7621C1.2465 20.7755 1.35577 20.7673 1.4602 20.7379C1.56462 20.7084 1.6621 20.6584 1.74687 20.5907C1.83164 20.5229 1.90199 20.4389 1.95377 20.3436C3.8672 17.0367 7.24924 15.0623 10.9999 15.0623C14.7506 15.0623 18.1327 17.0367 20.0461 20.3436C20.0979 20.4389 20.1682 20.5229 20.253 20.5907C20.3378 20.6584 20.4353 20.7084 20.5397 20.7379C20.6441 20.7673 20.7534 20.7755 20.861 20.7621C20.9687 20.7486 21.0726 20.7137 21.1665 20.6594C21.2605 20.6052 21.3426 20.5326 21.4081 20.4461C21.4735 20.3596 21.521 20.2608 21.5477 20.1556C21.5744 20.0505 21.5797 19.941 21.5634 19.8338C21.5471 19.7265 21.5095 19.6236 21.4527 19.5311ZM5.31244 7.74983C5.31244 6.62495 5.646 5.52533 6.27096 4.59003C6.89591 3.65472 7.78417 2.92574 8.82343 2.49527C9.86268 2.06479 11.0062 1.95216 12.1095 2.17162C13.2128 2.39107 14.2262 2.93275 15.0216 3.72816C15.817 4.52357 16.3587 5.53699 16.5782 6.64026C16.7976 7.74352 16.685 8.88709 16.2545 9.92635C15.824 10.9656 15.095 11.8539 14.1597 12.4788C13.2244 13.1038 12.1248 13.4373 10.9999 13.4373C9.49201 13.4357 8.04631 12.836 6.98005 11.7697C5.91379 10.7035 5.31405 9.25776 5.31244 7.74983Z" fill="white"/>
</svg>
