<svg width="60" height="60" viewBox="0 0 60 60" fill="none" xmlns="http://www.w3.org/2000/svg">
<g id="scooter-delivery-food_svgrepo.com">
<g id="Group">
<path id="Vector" fill-rule="evenodd" clip-rule="evenodd" d="M19.9219 12.7734H2.63672C1.97754 12.7734 1.43555 13.3154 1.43555 13.9746V24.0381H1.31836C0.59082 24.0381 0 24.6338 0 25.3564V26.8262C0 27.5635 0.605469 28.164 1.33789 28.164H10.6152C3.7207 28.7793 -0.219727 35.1904 0.209961 43.5254H6.34277C6.34766 47.5439 9.60938 50.7959 13.6279 50.7959C17.6465 50.7959 20.9082 47.539 20.9131 43.5254H39.6484C39.6533 43.3935 39.6582 43.2666 39.6631 43.1348C39.6484 44.0185 39.7021 44.956 39.8291 45.957L56.1572 38.2666L60 36.4502C56.9141 32.9394 53.1934 31.4648 48.6914 32.4805C47.998 32.6562 47.3438 32.8613 46.7236 33.0957C47.3584 32.8515 48.0273 32.6465 48.7305 32.4707L43.5938 15.5517L45.9131 15.5078C46.3916 15.498 46.9092 15.6299 47.2363 15.3955C47.8027 15.3808 48.2959 15.039 48.6377 14.5019C48.9453 14.0234 49.1309 13.3691 49.1309 12.6562C49.1309 11.9433 48.9404 11.289 48.6377 10.8105C48.3838 10.415 48.0518 10.1269 47.6709 9.9951C47.666 9.91698 47.6611 9.86327 47.6514 9.84862C47.1045 8.97459 46.04 9.23827 45.0928 9.23827L44.1699 9.29686C43.501 9.37987 42.8467 9.59959 42.2168 9.96092L41.1621 10.5517H40.3076L37.4365 11.1084C36.499 11.289 36.3623 11.2109 36.582 12.3681C36.6113 12.5146 36.6455 12.6611 36.6943 12.8027C36.9775 13.6474 37.2021 13.3349 38.0762 13.1543L40.7666 12.5976C40.6641 13.6816 41.0059 15.0097 41.4893 16.5625C39.9414 17.8711 39.248 19.7363 40.3027 22.1924L42.8711 30.1074C38.5645 33.1592 35.9766 35.9228 35.8301 40.459H30.1318C26.6211 37.7978 27.2021 33.0615 31.0547 30.0342V28.1689V25.3174C31.0498 24.414 30.5664 24.0088 29.668 24.0332H21.123V13.9746C21.123 13.3154 20.5811 12.7734 19.9219 12.7734ZM15.7227 22.2168H6.83105C6.7627 22.2168 6.7041 22.2754 6.7041 22.3437V22.5976C6.7041 22.666 6.7627 22.7246 6.83105 22.7246H15.7227C15.791 22.7246 15.8496 22.666 15.8496 22.5976V22.3437C15.8496 22.2754 15.7959 22.2168 15.7227 22.2168ZM10.9082 16.6894C8.30566 16.8994 6.4209 18.8574 6.74805 21.4355H15.8105C16.1279 18.8428 14.2383 16.8799 11.6162 16.6894V15.9619H12.3389C12.4121 15.9619 12.4707 15.9033 12.4707 15.8301V15.3564C12.4707 15.2832 12.4121 15.2246 12.3389 15.2246H10.2051C10.1318 15.2246 10.0732 15.2832 10.0732 15.3564V15.8301C10.0732 15.9033 10.1318 15.9619 10.2051 15.9619H10.9131V16.6894H10.9082ZM56.1377 38.2764L49.6436 41.3525L51.7529 40.3857C53.2031 40.6933 54.2871 41.9824 54.2871 43.5205C54.2871 45.293 52.8516 46.7285 51.0791 46.7285C49.3066 46.7285 47.8711 45.293 47.8711 43.5205C47.8711 42.9736 48.0078 42.4609 48.2471 42.0068L43.8135 44.1064C44.1113 47.8564 47.251 50.8056 51.0742 50.8056C55.0977 50.8056 58.3594 47.5439 58.3594 43.5205C58.3691 41.4599 57.5146 39.5996 56.1377 38.2764ZM47.6611 11.2451C47.6318 12.1826 47.5684 13.3887 47.5244 14.1992C47.6025 14.1308 47.6807 14.043 47.749 13.9306C47.9541 13.6133 48.0762 13.1592 48.0762 12.6514C48.0762 12.1435 47.9492 11.6894 47.749 11.3721C47.7197 11.3281 47.6904 11.2842 47.6611 11.2451ZM16.8359 43.5303H10.4199C10.4248 45.2978 11.8604 46.7236 13.6279 46.7236C15.3955 46.7285 16.8311 45.2978 16.8359 43.5303Z" fill="#8B0000"/>
</g>
</g>
</svg>
