<svg width="24" height="24" viewBox="0 0 24 24" fill="none" xmlns="http://www.w3.org/2000/svg">
<g id="GearSix" clip-path="url(#clip0_630_9050)">
<path id="Vector" d="M12 15.75C14.0711 15.75 15.75 14.0711 15.75 12C15.75 9.92893 14.0711 8.25 12 8.25C9.92893 8.25 8.25 9.92893 8.25 12C8.25 14.0711 9.92893 15.75 12 15.75Z" stroke="black" stroke-width="1.5" stroke-linecap="round" stroke-linejoin="round"/>
<path id="Vector_2" d="M12.1922 19.3228C12.0665 19.3228 11.94 19.3228 11.8172 19.3228L8.81246 21C7.64277 20.6065 6.55784 19.9959 5.61465 19.2L5.6034 15.825C5.53684 15.72 5.47403 15.6141 5.4159 15.5053L2.42809 13.8038C2.19275 12.6134 2.19275 11.3885 2.42809 10.1981L5.41309 8.50125C5.47403 8.39344 5.53684 8.28656 5.60059 8.18156L5.61559 4.80656C6.55793 4.00842 7.64257 3.39548 8.81246 3L11.8125 4.67719C11.9381 4.67719 12.0647 4.67719 12.1875 4.67719L15.1875 3C16.3572 3.39346 17.4421 4.00414 18.3853 4.8L18.3965 8.175C18.4631 8.28 18.5259 8.38594 18.584 8.49469L21.57 10.1953C21.8053 11.3857 21.8053 12.6106 21.57 13.8009L18.585 15.4978C18.524 15.6056 18.4612 15.7125 18.3975 15.8175L18.3825 19.1925C17.4408 19.9908 16.3568 20.604 15.1875 21L12.1922 19.3228Z" stroke="black" stroke-width="1.5" stroke-linecap="round" stroke-linejoin="round"/>
</g>
<defs>
<clipPath id="clip0_630_9050">
<rect width="24" height="24" fill="white"/>
</clipPath>
</defs>
</svg>
