<svg width="29" height="29" viewBox="0 0 29 29" fill="none" xmlns="http://www.w3.org/2000/svg">
<path d="M16.9844 3.10925L16.9842 3.10915C16.8483 3.05334 16.6704 3.01482 16.366 2.99424C16.0564 2.97332 15.6609 2.973 15.0946 2.973C14.5282 2.973 14.1331 2.97332 13.8236 2.99424C13.5195 3.0148 13.3413 3.05331 13.2045 3.10937L12.979 2.55917L13.2049 3.10921C12.765 3.28979 12.4148 3.63769 12.2314 4.07639L12.2308 4.07799C12.1625 4.23989 12.122 4.46025 12.1047 4.89264C12.0935 5.31858 11.9743 5.73472 11.7582 6.10201C11.5413 6.4707 11.234 6.77799 10.8652 6.99479L10.859 6.99843L10.8527 7.00193C10.4784 7.21002 10.0575 7.32025 9.62923 7.32242C9.20227 7.32459 8.78164 7.21928 8.40608 7.01625C8.02348 6.81496 7.80814 6.7389 7.62735 6.71496C7.15332 6.65281 6.67392 6.78024 6.29331 7.06955C6.17711 7.15798 6.05501 7.29093 5.88529 7.54166C5.71254 7.79688 5.51491 8.13618 5.23198 8.62301L5.2317 8.62349C4.94824 9.1102 4.75118 9.44956 4.61504 9.72542C4.48138 9.99623 4.42643 10.1675 4.40705 10.3116C4.34497 10.7788 4.4727 11.2521 4.76349 11.6276L4.76429 11.6286C4.87314 11.7699 5.04662 11.9157 5.41728 12.1475L5.10201 12.6516L5.41628 12.1469C6.1413 12.5983 6.62771 13.3824 6.62771 14.2701C6.62771 15.1571 6.14195 15.9412 5.41813 16.3917C5.04692 16.6243 4.87257 16.7705 4.76205 16.9129C4.61896 17.0979 4.51392 17.3095 4.45299 17.5353C4.39207 17.7611 4.37646 17.9967 4.40706 18.2286C4.42646 18.3722 4.48144 18.5435 4.61509 18.8144C4.75123 19.0904 4.94834 19.4301 5.2317 19.9167C5.51535 20.4037 5.713 20.7428 5.88578 20.9981C6.05539 21.2488 6.17744 21.3821 6.29417 21.4713C6.67257 21.7593 7.15204 21.8868 7.6274 21.8252C7.80818 21.8013 8.02352 21.7252 8.40609 21.5239C8.7818 21.3207 9.20264 21.2153 9.62983 21.2174C10.0584 21.2196 10.4795 21.33 10.8541 21.5383L10.8619 21.5427L10.8619 21.5427C11.6304 21.9855 12.0723 22.7921 12.1046 23.6439M16.9844 3.10925L11.5104 23.6669M16.9844 3.10925C17.2022 3.19861 17.4002 3.33001 17.5672 3.49593L17.9795 3.08104L17.5672 3.49594C17.7342 3.66186 17.8669 3.85906 17.9577 4.07628L17.9584 4.07799C18.0267 4.23996 18.0671 4.45921 18.0844 4.89251C18.0955 5.31826 18.2144 5.73428 18.4302 6.10152L18.9429 5.80031L18.4302 6.10152C18.6469 6.47021 18.9539 6.77757 19.3224 6.99457L19.3287 6.99828M16.9844 3.10925L19.3287 6.99828M12.1046 23.6439C12.1046 23.6441 12.1046 23.6443 12.1046 23.6445L11.5104 23.6669M12.1046 23.6439C12.1046 23.6437 12.1046 23.6436 12.1045 23.6434L11.5104 23.6669M12.1046 23.6439C12.1218 24.0797 12.1623 24.2997 12.2308 24.4622L12.2318 24.4646C12.4134 24.9009 12.7631 25.2494 13.205 25.431M11.5104 23.6669C11.5283 24.1188 11.5711 24.4279 11.6829 24.6931C11.9254 25.2758 12.3916 25.7396 12.979 25.981M13.205 25.431C13.205 25.431 13.205 25.431 13.205 25.431L12.979 25.981M13.205 25.431L12.979 25.981M13.205 25.431C13.3409 25.4868 13.5188 25.5254 13.8232 25.5459C14.1328 25.5669 14.5282 25.5672 15.0946 25.5672C15.6609 25.5672 16.0564 25.5669 16.366 25.5459C16.6704 25.5254 16.8483 25.4868 16.9842 25.431L16.9843 25.431C17.4242 25.2504 17.7743 24.9025 17.9577 24.4638L17.9584 24.4622C18.0269 24.2997 18.0674 24.0795 18.0846 23.6434L18.6787 23.6669M12.979 25.981C13.419 26.1618 13.9779 26.1618 15.0946 26.1618C16.2112 26.1618 16.7701 26.1618 17.2101 25.981C17.7958 25.7405 18.2621 25.2773 18.5063 24.6931L18.6787 23.6669M22.4841 22.4147C23.1143 22.4979 23.7517 22.3279 24.2559 21.9438C24.6341 21.656 24.9135 21.1756 25.4712 20.2159C26.0301 19.2563 26.3084 18.777 26.3714 18.3073M22.4841 22.4147L22.562 21.8252M22.4841 22.4147L22.5619 21.8252C22.5619 21.8252 22.562 21.8252 22.562 21.8252M22.4841 22.4147C22.1963 22.3766 21.9049 22.2601 21.503 22.0484M22.562 21.8252C23.0364 21.8879 23.5162 21.7598 23.8956 21.4708L23.8958 21.4706C24.012 21.3822 24.1341 21.2492 24.3039 20.9985C24.4766 20.7433 24.6742 20.404 24.9572 19.9172L24.9574 19.9167C25.2409 19.43 25.438 19.0906 25.5741 18.8147C25.7076 18.5443 25.7626 18.3731 25.782 18.229M22.562 21.8252C22.3812 21.8013 22.1658 21.7253 21.783 21.5239M25.782 18.229C25.782 18.2292 25.782 18.2294 25.782 18.2296L26.3714 18.3073M25.782 18.229C25.7821 18.2288 25.7821 18.2285 25.7821 18.2282L26.3714 18.3073M25.782 18.229C25.8125 17.9971 25.7968 17.7614 25.7357 17.5355C25.6746 17.3095 25.5692 17.0978 25.4258 16.9127L25.4249 16.9115C25.316 16.7703 25.1425 16.6245 24.7719 16.3927L26.3714 18.3073M21.783 21.5239C21.7842 21.5245 21.7854 21.5252 21.7866 21.5258L21.503 22.0484M21.783 21.5239C21.4075 21.3209 20.9869 21.2156 20.5599 21.2177C20.1316 21.2199 19.7108 21.3302 19.3364 21.5382L19.3364 21.5382L19.3297 21.542C18.5589 21.9836 18.1151 22.7925 18.0845 23.6456L18.6787 23.6669M21.783 21.5239C21.782 21.5234 21.781 21.5229 21.78 21.5223L21.503 22.0484M21.503 22.0484C21.2145 21.8919 20.8912 21.8107 20.5629 21.8123C20.2347 21.814 19.9122 21.8985 19.6253 22.0579C19.0462 22.3897 18.7025 23.0033 18.6787 23.6669M19.3287 6.99828L19.3351 7.00183M19.3287 6.99828L19.3351 7.00183M19.3351 7.00183C19.7096 7.21019 20.1307 7.32058 20.5593 7.32275C20.9865 7.32491 21.4074 7.21948 21.7832 7.0162C22.1657 6.81494 22.381 6.7389 22.5618 6.71496C23.0356 6.65284 23.5147 6.7801 23.8952 7.06909C24.0119 7.15831 24.1339 7.2916 24.3034 7.54205C24.4761 7.79736 24.6738 8.13646 24.9574 8.62349C25.2408 9.11003 25.4379 9.44977 25.5741 9.72577C25.7077 9.99661 25.7626 10.1679 25.7821 10.3114C25.8127 10.5433 25.7971 10.779 25.7362 11.0049C25.6752 11.2307 25.5702 11.4423 25.4271 11.6273C25.3166 11.7697 25.1422 11.9159 24.7711 12.1484L19.3351 7.00183ZM4.71791 8.32425L4.71792 8.32426L4.71791 8.32425ZM15.0946 18.4322C17.4046 18.4322 19.284 16.5731 19.284 14.2701C19.284 11.9669 17.4033 10.108 15.0946 10.108C12.7845 10.108 10.9051 11.967 10.9051 14.2701C10.9051 16.5733 12.7859 18.4322 15.0946 18.4322Z" stroke="#D4CACA" stroke-opacity="0.7" stroke-width="1.18917"/>
</svg>
