<svg width="24" height="24" viewBox="0 0 24 24" fill="none" xmlns="http://www.w3.org/2000/svg">
<g clip-path="url(#clip0_623_8112)">
<path d="M22.3069 10.0509C22.286 9.9453 22.2427 9.84543 22.1797 9.75807C22.1168 9.67072 22.0358 9.59793 21.9422 9.54467L19.1457 7.95092L19.1344 4.79904C19.1341 4.69049 19.1102 4.58331 19.0644 4.4849C19.0186 4.38649 18.952 4.29919 18.8691 4.22904C17.8547 3.37095 16.6865 2.71336 15.4266 2.29123C15.3274 2.25765 15.2223 2.24522 15.1179 2.25475C15.0136 2.26428 14.9125 2.29555 14.821 2.34654L12.0001 3.92342L9.17631 2.34373C9.08476 2.29245 8.98348 2.26094 8.87899 2.25125C8.77451 2.24156 8.66916 2.2539 8.56974 2.28748C7.31065 2.71232 6.14372 3.37246 5.13099 4.23279C5.04828 4.30284 4.98172 4.38999 4.93592 4.48823C4.89012 4.58647 4.86616 4.69347 4.86568 4.80186L4.85162 7.95654L2.05506 9.55029C1.9615 9.60356 1.8805 9.67634 1.81757 9.7637C1.75464 9.85105 1.71126 9.95093 1.69037 10.0565C1.43443 11.3427 1.43443 12.6667 1.69037 13.9528C1.71126 14.0584 1.75464 14.1583 1.81757 14.2456C1.8805 14.333 1.9615 14.4058 2.05506 14.459L4.85162 16.0528L4.86287 19.2056C4.86321 19.3142 4.88711 19.4213 4.93291 19.5197C4.97872 19.6182 5.04534 19.7055 5.12818 19.7756C6.14262 20.6337 7.31083 21.2913 8.57068 21.7134C8.66989 21.747 8.77504 21.7594 8.87935 21.7499C8.98366 21.7404 9.08482 21.7091 9.17631 21.6581L12.0001 20.0765L14.8238 21.6562C14.9356 21.7185 15.0615 21.7508 15.1894 21.75C15.2713 21.75 15.3527 21.7367 15.4304 21.7106C16.6891 21.286 17.856 20.6265 18.8691 19.7672C18.9518 19.6971 19.0184 19.61 19.0642 19.5117C19.11 19.4135 19.134 19.3065 19.1344 19.1981L19.1485 16.0434L21.9451 14.4497C22.0386 14.3964 22.1196 14.3236 22.1825 14.2363C22.2455 14.1489 22.2889 14.049 22.3097 13.9434C22.5643 12.6583 22.5633 11.3357 22.3069 10.0509ZM12.0001 15.75C11.2584 15.75 10.5334 15.53 9.91667 15.118C9.29998 14.7059 8.81934 14.1203 8.53551 13.435C8.25168 12.7498 8.17742 11.9958 8.32211 11.2684C8.46681 10.541 8.82396 9.87278 9.34841 9.34833C9.87285 8.82388 10.541 8.46673 11.2685 8.32204C11.9959 8.17734 12.7499 8.2516 13.4351 8.53543C14.1203 8.81926 14.706 9.29991 15.1181 9.91659C15.5301 10.5333 15.7501 11.2583 15.7501 12C15.7501 12.9945 15.355 13.9484 14.6517 14.6516C13.9484 15.3549 12.9946 15.75 12.0001 15.75Z" fill="#999999"/>
</g>
<defs>
<clipPath id="clip0_623_8112">
<rect width="24" height="24" fill="white"/>
</clipPath>
</defs>
</svg>
