<svg width="17" height="16" viewBox="0 0 17 16" fill="none" xmlns="http://www.w3.org/2000/svg">
<path d="M15.0704 4.79121H2.27041V3.19121H15.0704V4.79121ZM13.4704 -0.00878906H3.87041V1.59121H13.4704V-0.00878906ZM16.6704 7.99121V14.3912C16.6704 14.8156 16.5018 15.2225 16.2018 15.5226C15.9017 15.8226 15.4948 15.9912 15.0704 15.9912H2.27041C1.84645 15.9899 1.44022 15.821 1.14044 15.5212C0.840654 15.2214 0.671676 14.8152 0.67041 14.3912V7.99121C0.671676 7.56725 0.840654 7.16102 1.14044 6.86124C1.44022 6.56145 1.84645 6.39248 2.27041 6.39121H15.0704C15.4944 6.39248 15.9006 6.56145 16.2004 6.86124C16.5002 7.16102 16.6691 7.56725 16.6704 7.99121ZM10.212 12.0248L12.0704 10.436L9.62321 10.2312L8.67041 7.99121L7.71761 10.2312L5.27041 10.436L7.12881 12.0248L6.56881 14.3912L8.67041 13.1336L10.772 14.3912L10.212 12.0248Z" fill="white"/>
</svg>
