<svg width="18" height="18" viewBox="0 0 18 18" fill="none" xmlns="http://www.w3.org/2000/svg">
<g id="visa_svgrepo.com" clip-path="url(#clip0_623_6201)">
<path id="Vector" d="M16.8 15H1.2C0.5375 15 0 14.4625 0 13.8V4.2C0 3.5375 0.5375 3 1.2 3H16.8C17.4625 3 18 3.5375 18 4.2V13.8C18 14.4625 17.4625 15 16.8 15ZM8.92 10.381L8.7405 11.506C9.1355 11.675 9.595 11.7735 10.0775 11.7735C10.116 11.7735 10.154 11.773 10.192 11.7715H10.1865C10.2305 11.774 10.2815 11.7755 10.3335 11.7755C10.888 11.7755 11.402 11.6015 11.824 11.305L11.8155 11.3105C12.1985 11.0265 12.4445 10.576 12.4445 10.068C12.4445 10.0655 12.4445 10.063 12.4445 10.0605C12.4445 9.5105 12.0765 9.054 11.351 8.701C11.138 8.597 10.956 8.488 10.785 8.365L10.7965 8.373C10.6975 8.308 10.6315 8.2005 10.625 8.077C10.633 7.947 10.7075 7.835 10.8145 7.776L10.8165 7.775C10.9575 7.693 11.1265 7.6445 11.3075 7.6445C11.3285 7.6445 11.3495 7.645 11.3705 7.6465H11.3675H11.4075C11.419 7.6465 11.4325 7.646 11.446 7.646C11.768 7.646 12.0735 7.7155 12.349 7.84L12.335 7.8345L12.452 7.897L12.6315 6.8115C12.294 6.678 11.9025 6.6005 11.493 6.6005C11.485 6.6005 11.4765 6.6005 11.4685 6.6005H11.47C11.438 6.599 11.4005 6.598 11.363 6.598C10.815 6.598 10.307 6.7715 9.8915 7.0665L9.8995 7.061C9.5235 7.329 9.281 7.763 9.281 8.254V8.2565C9.276 8.7855 9.657 9.2425 10.414 9.6165C10.614 9.704 10.7865 9.811 10.941 9.9395L10.9375 9.9365C11.025 10.0105 11.0815 10.119 11.086 10.2405V10.2425C11.086 10.402 10.991 10.539 10.854 10.6005L10.8515 10.6015C10.7015 10.6805 10.5235 10.7265 10.3345 10.7265C10.327 10.7265 10.319 10.7265 10.3115 10.7265H10.3125C10.3015 10.7265 10.288 10.7265 10.275 10.7265C9.8465 10.7265 9.4405 10.6315 9.0765 10.4615L9.094 10.469L8.9225 10.383L8.92 10.381ZM13.9825 10.9515H15.64C15.6667 11.0658 15.7188 11.3158 15.7965 11.7015H17L15.953 6.686H14.953C14.9355 6.6845 14.915 6.6835 14.894 6.6835C14.613 6.6835 14.3725 6.8575 14.2745 7.1035L14.273 7.108L12.353 11.7015H13.713L13.986 10.952L13.9825 10.9515ZM7.4455 6.686L6.6325 11.7015H7.9295L8.742 6.686H7.4455ZM2.461 7.7095L3.516 11.6935H4.883L6.9205 6.686H5.5475L4.2805 10.108L4.1475 9.4125L3.6955 7.108C3.65 6.8635 3.4385 6.6805 3.184 6.6805C3.158 6.6805 3.132 6.6825 3.107 6.686L3.11 6.6855H1.0165L1.001 6.787C2.613 7.1965 3.672 8.08 4.149 9.412C3.9945 9.016 3.769 8.6785 3.486 8.4C3.2025 8.109 2.8615 7.875 2.482 7.7155L2.462 7.708L2.461 7.7095ZM15.4295 9.92H14.3495C14.4225 9.72733 14.5945 9.26067 14.8655 8.52L14.8885 8.4495C14.9095 8.3975 14.9355 8.3295 14.9685 8.2465C15.0015 8.1635 15.0235 8.0955 15.0385 8.0435L15.1325 8.473L15.429 9.918L15.4295 9.92Z" fill="#8B0000"/>
<rect id="Rectangle 112" x="1" y="6" width="16" height="6" fill="#8B0000"/>
<g id="Group 376">
<path id="Vector 3" d="M11.4684 6.67871L7 7.3761V8.46092L7.92985 8.33178V8.87419L7 8.9775V10.114L7.92985 9.95901V11.5346C7.92985 12.9035 9.3218 13.3043 11.236 12.7744V11.3796C10.201 11.6658 9.55708 11.6637 9.50543 11.0697C9.45377 10.4756 9.50543 9.72655 9.50543 9.72655L11.4684 9.4166V8.33178L9.50543 8.66755V8.12514L11.4684 7.84102V6.67871Z" fill="white"/>
<path id="Vector 4" d="M8.1106 5V7.16965C9.29756 6.77779 9.63912 6.43579 9.68617 5.6199V5H8.1106Z" fill="white"/>
</g>
</g>
<defs>
<clipPath id="clip0_623_6201">
<rect width="18" height="18" fill="white"/>
</clipPath>
</defs>
</svg>
