<svg width="76" height="76" viewBox="0 0 76 76" fill="none" xmlns="http://www.w3.org/2000/svg">
<g clip-path="url(#clip0_623_4672)">
<path d="M73.4559 34.7343L69.2997 24.3437C68.9469 23.4641 68.338 22.7108 67.5519 22.1814C66.7658 21.652 65.8388 21.3711 64.8911 21.3749H54.6251V18.9999C54.6251 18.37 54.3749 17.766 53.9295 17.3206C53.4841 16.8752 52.88 16.6249 52.2501 16.6249H7.12512C5.86534 16.6249 4.65716 17.1254 3.76636 18.0162C2.87557 18.907 2.37512 20.1152 2.37512 21.3749V54.6249C2.37512 55.8847 2.87557 57.0929 3.76636 57.9837C4.65716 58.8745 5.86534 59.3749 7.12512 59.3749H12.172C12.6952 61.4184 13.8837 63.2297 15.55 64.5231C17.2163 65.8165 19.2657 66.5186 21.3751 66.5186C23.4845 66.5186 25.5339 65.8165 27.2003 64.5231C28.8666 63.2297 30.055 61.4184 30.5782 59.3749H45.422C45.9452 61.4184 47.1337 63.2297 48.8 64.5231C50.4663 65.8165 52.5157 66.5186 54.6251 66.5186C56.7345 66.5186 58.7839 65.8165 60.4503 64.5231C62.1166 63.2297 63.305 61.4184 63.8282 59.3749H68.8751C70.1349 59.3749 71.3431 58.8745 72.2339 57.9837C73.1247 57.0929 73.6251 55.8847 73.6251 54.6249V35.6249C73.6255 35.32 73.5681 35.0178 73.4559 34.7343ZM21.3751 61.7499C20.4357 61.7499 19.5173 61.4714 18.7362 60.9494C17.955 60.4275 17.3462 59.6856 16.9867 58.8177C16.6272 57.9497 16.5331 56.9947 16.7164 56.0733C16.8997 55.1519 17.3521 54.3055 18.0164 53.6412C18.6807 52.9769 19.527 52.5245 20.4484 52.3412C21.3699 52.1579 22.3249 52.252 23.1929 52.6115C24.0608 52.971 24.8027 53.5798 25.3246 54.361C25.8465 55.1421 26.1251 56.0605 26.1251 56.9999C26.1251 58.2597 25.6247 59.4679 24.7339 60.3587C23.8431 61.2495 22.6349 61.7499 21.3751 61.7499ZM7.12512 40.3749V21.3749H49.8751V40.3749H7.12512ZM54.6251 61.7499C53.6857 61.7499 52.7673 61.4714 51.9862 60.9494C51.205 60.4275 50.5962 59.6856 50.2367 58.8177C49.8772 57.9497 49.7831 56.9947 49.9664 56.0733C50.1497 55.1519 50.6021 54.3055 51.2664 53.6412C51.9307 52.9769 52.777 52.5245 53.6984 52.3412C54.6199 52.1579 55.5749 52.252 56.4429 52.6115C57.3108 52.971 58.0527 53.5798 58.5746 54.361C59.0965 55.1421 59.3751 56.0605 59.3751 56.9999C59.3751 58.2597 58.8747 59.4679 57.9839 60.3587C57.0931 61.2495 55.8849 61.7499 54.6251 61.7499ZM54.6251 33.2499V26.1249H64.8911L67.7411 33.2499H54.6251Z" fill="white"/>
</g>
<defs>
<clipPath id="clip0_623_4672">
<rect width="76" height="76" fill="white"/>
</clipPath>
</defs>
</svg>
