<svg width="56" height="56" viewBox="0 0 56 56" fill="none" xmlns="http://www.w3.org/2000/svg">
<g id="twitter_svgrepo.com">
<path id="Vector" d="M27.75 50.875C40.5216 50.875 50.875 40.5216 50.875 27.75C50.875 14.9784 40.5216 4.625 27.75 4.625C14.9784 4.625 4.625 14.9784 4.625 27.75C4.625 40.5216 14.9784 50.875 27.75 50.875Z" fill="#1DA1F2"/>
<path id="Vector_2" fill-rule="evenodd" clip-rule="evenodd" d="M41.625 18.8568C40.6048 19.3101 39.5069 19.6153 38.3554 19.7531C39.5309 19.0483 40.4337 17.9329 40.8582 16.6037C39.7594 17.2567 38.5394 17.7294 37.2436 17.9856C36.2048 16.8794 34.724 16.1875 33.0878 16.1875C29.944 16.1875 27.3948 18.7367 27.3948 21.8805C27.3948 22.3263 27.4457 22.761 27.5428 23.1782C22.8108 22.9414 18.6162 20.6743 15.8081 17.2299C15.3179 18.0707 15.0376 19.0483 15.0376 20.0917C15.0376 22.0665 16.0412 23.809 17.5701 24.8301C16.6359 24.8005 15.7591 24.5443 14.9904 24.1179V24.1891C14.9904 26.9483 16.9541 29.2485 19.5569 29.773C19.0796 29.9025 18.5764 29.9728 18.0576 29.9728C17.6904 29.9728 17.3333 29.9367 16.9855 29.8701C17.7098 32.1316 19.8132 33.778 22.3039 33.8242C20.356 35.3504 17.9013 36.2614 15.2337 36.2614C14.7731 36.2614 14.3199 36.2346 13.875 36.1809C16.3946 37.796 19.3867 38.7393 22.6018 38.7393C33.073 38.7393 38.7994 30.0644 38.7994 22.5418C38.7994 22.2948 38.7947 22.0489 38.7827 21.8056C39.8963 21.0009 40.8619 19.9983 41.625 18.8568Z" fill="white"/>
</g>
</svg>
