<svg width="14" height="12" viewBox="0 0 14 12" fill="none" xmlns="http://www.w3.org/2000/svg">
<rect width="14" height="12" fill="#1E1E1E"/>
<g id="login">
<rect x="-334" y="-427" width="393" height="852" rx="30" fill="white"/>
<g id="Email Password">
<g id="Password">
<rect id="Rectangle 9" x="-301" y="-19" width="328" height="50" rx="10" fill="#F5F5F5"/>
<g id="Frame 118">
<path id="Vector" d="M2.67866 0.156974C2.63768 0.110778 2.58794 0.0731751 2.53232 0.0463451C2.47669 0.019515 2.4163 0.00399135 2.35464 0.000673886C2.29297 -0.00264358 2.23126 0.00631105 2.17308 0.0270189C2.1149 0.0477267 2.06141 0.0797758 2.01571 0.121309C1.97001 0.162841 1.93301 0.213032 1.90684 0.268971C1.88068 0.32491 1.86588 0.385486 1.86331 0.447186C1.86073 0.508887 1.87042 0.570486 1.89183 0.628412C1.91323 0.686339 1.94592 0.739441 1.988 0.784641L3.11033 2.01956C0.991662 3.31981 0.0804945 5.32414 0.0402444 5.41514C0.0137104 5.47483 0 5.53941 0 5.60473C0 5.67004 0.0137104 5.73463 0.0402444 5.79431C0.0606611 5.84039 0.554745 6.9359 1.65316 8.03431C3.11675 9.49731 4.96533 10.2708 7 10.2708C8.04569 10.2768 9.08082 10.0615 10.0374 9.63906L11.3208 11.0513C11.3617 11.0975 11.4115 11.1351 11.4671 11.1619C11.5227 11.1888 11.5831 11.2043 11.6448 11.2076C11.7064 11.2109 11.7682 11.202 11.8263 11.1813C11.8845 11.1606 11.938 11.1285 11.9837 11.087C12.0294 11.0454 12.0664 10.9953 12.0926 10.9393C12.1187 10.8834 12.1335 10.8228 12.1361 10.7611C12.1387 10.6994 12.129 10.6378 12.1076 10.5799C12.0862 10.522 12.0535 10.4688 12.0114 10.4236L2.67866 0.156974ZM5.43958 4.58098L7.87033 7.25556C7.50429 7.44813 7.08465 7.51368 6.67732 7.4419C6.26998 7.37013 5.89802 7.1651 5.61984 6.85902C5.34166 6.55293 5.17302 6.16312 5.14039 5.7508C5.10777 5.33848 5.213 4.927 5.43958 4.58098ZM7 9.33748C5.2045 9.33748 3.63591 8.68473 2.33741 7.3979C1.80443 6.86822 1.35112 6.26401 0.991662 5.60415C1.26525 5.09139 2.1385 3.65639 3.75375 2.72364L4.80375 3.87573C4.39724 4.39636 4.18788 5.04393 4.21267 5.704C4.23746 6.36406 4.49481 6.99411 4.93922 7.48278C5.38363 7.97145 5.98649 8.28727 6.64124 8.37443C7.296 8.46159 7.96048 8.31446 8.51725 7.95906L9.3765 8.90407C8.61816 9.19501 7.81222 9.34199 7 9.33748ZM7.35 3.77073C7.2284 3.74752 7.121 3.67696 7.05142 3.57456C6.98184 3.47217 6.95579 3.34633 6.979 3.22473C7.00221 3.10312 7.07277 2.99572 7.17516 2.92615C7.27756 2.85657 7.4034 2.83052 7.525 2.85373C8.11977 2.96903 8.66133 3.27352 9.0689 3.72178C9.47648 4.17003 9.72822 4.73803 9.78659 5.34106C9.79811 5.46429 9.76021 5.58704 9.68122 5.68233C9.60224 5.77761 9.48864 5.83762 9.36542 5.84914C9.35085 5.85 9.33624 5.85 9.32167 5.84914C9.20503 5.84965 9.09243 5.80645 9.00606 5.72806C8.91968 5.64968 8.86579 5.54179 8.855 5.42564C8.81572 5.02454 8.64804 4.64683 8.37688 4.34866C8.10573 4.0505 7.74558 3.84781 7.35 3.77073ZM13.958 5.79431C13.9335 5.84914 13.3426 7.15756 12.012 8.34931C11.9665 8.39133 11.9132 8.42388 11.855 8.44507C11.7968 8.46626 11.735 8.47567 11.6732 8.47274C11.6114 8.46981 11.5507 8.45461 11.4948 8.42801C11.4389 8.40142 11.3888 8.36397 11.3476 8.31784C11.3063 8.27172 11.2746 8.21783 11.2543 8.15934C11.234 8.10084 11.2256 8.03889 11.2295 7.97711C11.2334 7.91532 11.2496 7.85494 11.2771 7.79946C11.3046 7.74399 11.3428 7.69453 11.3896 7.65398C12.0424 7.06751 12.5907 6.37436 13.0113 5.60415C12.651 4.94368 12.1967 4.33906 11.6626 3.80923C10.3641 2.52356 8.7955 1.87081 7 1.87081C6.62168 1.87035 6.24397 1.90098 5.87067 1.96239C5.80996 1.97313 5.74773 1.97173 5.68757 1.95828C5.6274 1.94482 5.5705 1.91959 5.52015 1.88402C5.4698 1.84845 5.42699 1.80326 5.39421 1.75105C5.36142 1.69885 5.3393 1.64066 5.32913 1.57986C5.31896 1.51906 5.32093 1.45684 5.33494 1.39681C5.34895 1.33677 5.37472 1.28011 5.41075 1.23009C5.44678 1.18007 5.49237 1.13768 5.54488 1.10538C5.59738 1.07308 5.65577 1.0515 5.71667 1.04189C6.14084 0.971853 6.57008 0.936929 7 0.937475C9.03467 0.937475 10.8833 1.71098 12.3468 3.17456C13.4453 4.27298 13.9393 5.36906 13.9598 5.41514C13.9863 5.47483 14 5.53941 14 5.60473C14 5.67004 13.9863 5.73463 13.9598 5.79431H13.958Z" fill="#8B0000"/>
</g>
</g>
</g>
</g>
</svg>
