<svg width="26" height="26" viewBox="0 0 26 26" fill="none" xmlns="http://www.w3.org/2000/svg">
<path fill-rule="evenodd" clip-rule="evenodd" d="M12.5517 25.9999C19.4839 25.9999 25.1034 20.3803 25.1034 13.4482C25.1034 6.51608 19.4839 0.896484 12.5517 0.896484C5.6196 0.896484 0 6.51608 0 13.4482C0 15.6994 0.592621 17.8121 1.63035 19.6389L0 25.9999L6.55815 24.4792C8.33919 25.4489 10.3811 25.9999 12.5517 25.9999ZM12.5517 24.0689C18.4174 24.0689 23.1725 19.3139 23.1725 13.4482C23.1725 7.58261 18.4174 2.82752 12.5517 2.82752C6.68608 2.82752 1.93104 7.58261 1.93104 13.4482C1.93104 15.713 2.6399 17.8122 3.84786 19.536L2.89655 23.1034L6.52683 22.1958C8.23877 23.3772 10.3145 24.0689 12.5517 24.0689Z" fill="#BFC8D0"/>
<path d="M23.3103 12.5516C23.3103 18.4934 18.4935 23.3102 12.5517 23.3102C10.2854 23.3102 8.18272 22.6095 6.44858 21.4128L2.77115 22.3322L3.73481 18.7184C2.51116 16.9722 1.79309 14.8458 1.79309 12.5516C1.79309 6.60976 6.60989 1.79297 12.5517 1.79297C18.4935 1.79297 23.3103 6.60976 23.3103 12.5516Z" fill="url(#paint0_linear_673_7052)"/>
<path fill-rule="evenodd" clip-rule="evenodd" d="M12.5517 25.1034C19.4839 25.1034 25.1034 19.4839 25.1034 12.5517C25.1034 5.6196 19.4839 0 12.5517 0C5.6196 0 0 5.6196 0 12.5517C0 14.8029 0.592621 16.9156 1.63035 18.7424L0 25.1034L6.55815 23.5827C8.33919 24.5524 10.3811 25.1034 12.5517 25.1034ZM12.5517 23.1725C18.4174 23.1725 23.1725 18.4174 23.1725 12.5517C23.1725 6.68608 18.4174 1.93104 12.5517 1.93104C6.68608 1.93104 1.93104 6.68608 1.93104 12.5517C1.93104 14.8165 2.6399 16.9157 3.84786 18.6395L2.89655 22.2069L6.52683 21.2993C8.23877 22.4807 10.3145 23.1725 12.5517 23.1725Z" fill="white"/>
<path d="M9.41376 6.72382C9.11539 6.1244 8.65752 6.17747 8.19508 6.17747C7.36855 6.17747 6.07971 7.16751 6.07971 9.01013C6.07971 10.5202 6.74513 12.1732 8.98736 14.6459C11.1513 17.0324 13.9946 18.2668 16.355 18.2248C18.7155 18.1828 19.2011 16.1515 19.2011 15.4656C19.2011 15.1615 19.0124 15.0098 18.8825 14.9686C18.0781 14.5826 16.5945 13.8632 16.257 13.7281C15.9194 13.593 15.7431 13.7758 15.6336 13.8753C15.3275 14.1669 14.7207 15.0267 14.5129 15.2201C14.3052 15.4135 13.9954 15.3156 13.8665 15.2425C13.3921 15.0522 12.106 14.4801 11.0809 13.4862C9.813 12.2573 9.73858 11.8344 9.49974 11.458C9.30869 11.1568 9.44891 10.9721 9.51884 10.8914C9.79202 10.5762 10.1692 10.0896 10.3384 9.84777C10.5075 9.60588 10.3733 9.23875 10.2927 9.01013C9.94614 8.02661 9.65252 7.20331 9.41376 6.72382Z" fill="white"/>
<defs>
<linearGradient id="paint0_linear_673_7052" x1="21.9655" y1="4.48262" x2="1.79309" y2="23.3102" gradientUnits="userSpaceOnUse">
<stop stop-color="#5BD066"/>
<stop offset="1" stop-color="#27B43E"/>
</linearGradient>
</defs>
</svg>
